<svg xmlns="http://www.w3.org/2000/svg" viewBox="0 0 189.5 147.38"><defs><style>.cls-1{isolation:isolate;}.cls-2{fill:#4d3b21;}.cls-3{fill:#f7a21b;}.cls-4{fill:#73451c;}.cls-5{fill:#edd54f;}.cls-6{fill:#a3bd3a;}.cls-7{fill:#ee412d;}.cls-8{fill:#dd8d19;}.cls-9{fill:none;stroke:#4d3b21;stroke-linecap:round;stroke-linejoin:round;stroke-width:4.44px;}.cls-10{fill:#eeeae8;}.cls-11{fill:#777;opacity:0.1;mix-blend-mode:multiply;}</style></defs><title>burger_person2</title><g class="cls-1"><g id="OBJECTS"><path class="cls-2" d="M328.93,309.29c-8.52,4.24-1,20.76,1.33,26l1.11-1.93h-7.31a1.28,1.28,0,0,0,0,2.57h7.31a1.3,1.3,0,0,0,1.11-1.93c-1.67-3.65-8.93-19.13-2.25-22.46,1.48-.74.18-3-1.3-2.22h0Z" transform="translate(-246.33 -192.06)"/><path class="cls-2" d="M350.4,311.5c6.69,3.33-.59,18.8-2.25,22.46a1.3,1.3,0,0,0,1.11,1.93h7.31a1.28,1.28,0,0,0,0-2.57h-7.31l1.11,1.93c2.39-5.23,9.85-21.73,1.33-26-1.48-.73-2.78,1.48-1.3,2.22h0Z" transform="translate(-246.33 -192.06)"/><path class="cls-2" d="M277.27,266.22c-12.45-1.81-19.67-15.14-22.35-26-0.39-1.6-2.87-.92-2.48.68,2.87,11.7,10.83,25.9,24.14,27.84,1.62,0.24,2.31-2.24.68-2.48h0Z" transform="translate(-246.33 -192.06)"/><path class="cls-2" d="M246.7,236.17l6.59,5a0.79,0.79,0,0,0,1.15-.89l-2.2-7.54a0.79,0.79,0,0,0-1.51.42l2.2,7.54,1.15-.89-6.59-5c-0.8-.61-1.59.75-0.79,1.36h0Z" transform="translate(-246.33 -192.06)"/><path class="cls-2" d="M248.1,233.36l4.91,7.54a0.79,0.79,0,0,0,1.36,0l2.31-5c0.42-.91-0.93-1.71-1.36-0.79l-2.31,5h1.36l-4.91-7.54a0.79,0.79,0,0,0-1.36.79h0Z" transform="translate(-246.33 -192.06)"/><path class="cls-2" d="M253.9,239.75l-6.59-1.7a0.79,0.79,0,0,0-.42,1.51l6.59,1.7a0.79,0.79,0,0,0,.42-1.51h0Z" transform="translate(-246.33 -192.06)"/><path class="cls-2" d="M405.57,268.69c13.31-1.94,21.27-16.14,24.14-27.84,0.39-1.61-2.08-2.29-2.48-.68-2.68,10.91-9.9,24.24-22.35,26-1.63.24-.94,2.71,0.68,2.48h0Z" transform="translate(-246.33 -192.06)"/><path class="cls-2" d="M434.67,234.82l-6.59,5,1.15,0.89,2.2-7.54a0.79,0.79,0,0,0-1.51-.42l-2.2,7.54a0.79,0.79,0,0,0,1.15.89l6.59-5c0.79-.6,0-2-0.79-1.36h0Z" transform="translate(-246.33 -192.06)"/><path class="cls-2" d="M432.71,232.57l-4.91,7.54h1.36l-2.31-5c-0.42-.92-1.78-0.12-1.36.79l2.31,5a0.79,0.79,0,0,0,1.36,0l4.91-7.54a0.79,0.79,0,0,0-1.36-.79h0Z" transform="translate(-246.33 -192.06)"/><path class="cls-2" d="M428.68,241.27l6.59-1.7a0.79,0.79,0,0,0-.42-1.51l-6.59,1.7a0.79,0.79,0,0,0,.42,1.51h0Z" transform="translate(-246.33 -192.06)"/><path class="cls-3" d="M274,296s-2.36,13.15,11.67,13.77,52.23,0,52.23,0a2.15,2.15,0,0,0,2.1-2.14V294" transform="translate(-246.33 -192.06)"/><path class="cls-3" d="M406.8,296s2.39,13.15-11.65,13.77-65,0-65,0a2.17,2.17,0,0,1-2.14-2.13V294" transform="translate(-246.33 -192.06)"/><path class="cls-4" d="M413.51,288.93c0,5.09-5.76,9.26-12.8,9.26H278.12c-7,0-12.8-4.17-12.8-9.26s5.76-9.26,12.8-9.26h122.6C407.75,279.66,413.51,283.83,413.51,288.93Z" transform="translate(-246.33 -192.06)"/><path class="cls-5" d="M320.56,304.2c0-.05,2.64-1.18,5.87-2.51L361,287.49c3.23-1.33,3.68-4.24,1-6.48l-3.4-2.84a22.11,22.11,0,0,0-11.21-4.37l-20.48-1-6.34-.31H320.1l-6.34.31-20.48,1a22.11,22.11,0,0,0-11.21,4.37l-3.4,2.84c-2.68,2.24-2.23,5.15,1,6.48l34.55,14.2c3.23,1.33,5.87,2.45,5.87,2.51s0.05,0.07.11,0a0.35,0.35,0,0,1,.23,0C320.51,304.27,320.56,304.25,320.56,304.2Z" transform="translate(-246.33 -192.06)"/><circle class="cls-6" cx="30.6" cy="87.61" r="8.65"/><circle class="cls-6" cx="47.91" cy="87.61" r="8.65"/><circle class="cls-6" cx="65.21" cy="87.61" r="8.65"/><circle class="cls-6" cx="82.52" cy="87.61" r="8.65"/><circle class="cls-6" cx="99.82" cy="87.61" r="8.65"/><circle class="cls-6" cx="117.13" cy="87.61" r="8.65"/><circle class="cls-6" cx="134.43" cy="87.61" r="8.65"/><circle class="cls-6" cx="151.74" cy="87.61" r="8.65"/><path class="cls-3" d="M404.88,262.75c-5.62-51.83-65.24-52.55-65.24-52.55h-0.22s-60,.73-65.29,53c-0.25,2.43-.28,3.6-0.31,5s4.48,2.6,10,2.6H395.2c5.56,0,10.07-1.24,10-2.75S405.16,265.31,404.88,262.75Z" transform="translate(-246.33 -192.06)"/><path class="cls-7" d="M409.72,273.56c0,3.36-4.55,6.1-10.1,6.1h-120c-5.56,0-10.1-2.75-10.1-6.1s4.55-6.1,10.1-6.1h120C405.18,267.45,409.72,270.2,409.72,273.56Z" transform="translate(-246.33 -192.06)"/><path class="cls-7" d="M409.72,273.56c0,3.36-4.55,6.1-10.1,6.1h-120c-5.56,0-10.1-2.75-10.1-6.1s4.55-6.1,10.1-6.1h120C405.18,267.45,409.72,270.2,409.72,273.56Z" transform="translate(-246.33 -192.06)"/><circle class="cls-8" cx="93.69" cy="27.02" r="2.53"/><circle class="cls-8" cx="85.04" cy="42.14" r="2.53"/><circle class="cls-8" cx="117.13" cy="34.6" r="2.53"/><circle class="cls-8" cx="50.43" cy="49.75" r="2.53"/><circle class="cls-8" cx="136.96" cy="47.23" r="2.53"/><circle class="cls-8" cx="65.21" cy="29.55" r="2.53"/><path class="cls-9" d="M343.53,240.63a4.11,4.11,0,1,1-8.22,0" transform="translate(-246.33 -192.06)"/><circle class="cls-10" cx="66.2" cy="47.04" r="16.98"/><circle class="cls-2" cx="66.2" cy="47.04" r="12.13"/><circle class="cls-10" cx="119.98" cy="47.04" r="16.98"/><circle class="cls-2" cx="119.98" cy="47.04" r="12.13"/><path class="cls-3" d="M306,257a93.47,93.47,0,0,0,11.58-.27c3.87-.24,7.85-0.54,11.79-0.41A17,17,0,0,0,296,254.16,20.91,20.91,0,0,0,306,257Z" transform="translate(-246.33 -192.06)"/><path class="cls-3" d="M306,257a93.47,93.47,0,0,0,11.58-.27c2.27-.14,4.59-0.3,6.91-0.39a12.13,12.13,0,0,0-24-.2A27.47,27.47,0,0,0,306,257Z" transform="translate(-246.33 -192.06)"/><path class="cls-3" d="M368.68,258.51c4.87-.44,9.72-1.08,14.58-1.33a17,17,0,0,0-33.89-.46C355.23,259.39,362.15,259.1,368.68,258.51Z" transform="translate(-246.33 -192.06)"/><path class="cls-3" d="M368.68,258.51c3.25-.29,6.5-0.68,9.74-1a12.13,12.13,0,0,0-24.25.47c0,0.08,0,.17,0,0.25C358.84,259.21,363.86,258.95,368.68,258.51Z" transform="translate(-246.33 -192.06)"/><circle class="cls-10" cx="70.65" cy="41.58" r="1.62"/><circle class="cls-10" cx="124.83" cy="41.58" r="1.62"/><circle class="cls-3" cx="145.61" cy="61.93" r="2.53"/><circle class="cls-3" cx="72.27" cy="59.42" r="2.53"/><circle class="cls-3" cx="56.56" cy="66.85" r="2.53"/><circle class="cls-3" cx="91.17" cy="66.85" r="2.53"/><circle class="cls-3" cx="39.26" cy="61.93" r="2.53"/><circle class="cls-3" cx="123.21" cy="61.93" r="2.53"/><circle class="cls-8" cx="145.61" cy="61.93" r="2.53"/><circle class="cls-8" cx="72.27" cy="59.42" r="2.53"/><circle class="cls-8" cx="56.56" cy="66.85" r="2.53"/><circle class="cls-8" cx="91.17" cy="66.85" r="2.53"/><circle class="cls-8" cx="39.26" cy="61.93" r="2.53"/><circle class="cls-8" cx="123.21" cy="61.93" r="2.53"/><ellipse class="cls-11" cx="91.64" cy="143.44" rx="68.13" ry="3.94"/><path class="cls-2" d="M307.69,195.57a85.31,85.31,0,0,0,12.64.47c2.57-.07,8.82-1.42,10.66-0.27,2.25,1.4,3,6.18,3.63,8.42a0.74,0.74,0,0,0,1.34.18c2.08-3.15,4.08-8.1,6.93-10.52,0.84-.71-0.85.17,0.42-0.08a21.64,21.64,0,0,1,4.25.17,148.28,148.28,0,0,0,15.48-.4c0.94-.07.94-1.54,0-1.47a139.28,139.28,0,0,1-20.46.18,0.74,0.74,0,0,0-.63.36l-7.25,11,1.34,0.18c-0.72-2.56-1.55-7.46-4-9.16-1.78-1.22-5.87-.26-8-0.19a104.63,104.63,0,0,1-16.32-.34c-0.94-.11-0.93,1.35,0,1.47h0Z" transform="translate(-246.33 -192.06)"/></g></g></svg>