<svg xmlns="http://www.w3.org/2000/svg" viewBox="0 0 158.38 157.19"><defs><style>.cls-1{isolation:isolate;}.cls-2{fill:#4d3b21;}.cls-3{fill:#f7a21b;}.cls-4{fill:#73451c;}.cls-5{fill:#edd54f;}.cls-6{fill:#a3bd3a;}.cls-7{fill:#ee412d;}.cls-8{fill:#eeeae8;}.cls-9{fill:#dd8d19;}.cls-10{fill:none;stroke:#4d3b21;stroke-linecap:round;stroke-linejoin:round;stroke-width:4.44px;}.cls-11{fill:#777;opacity:0.1;mix-blend-mode:multiply;}</style></defs><title>burger_person1</title><g class="cls-1"><g id="OBJECTS"><path class="cls-2" d="M155.31,309.29c-8.52,4.24-1,20.76,1.33,26l1.11-1.93h-7.31a1.28,1.28,0,0,0,0,2.57h7.31a1.3,1.3,0,0,0,1.11-1.93c-1.67-3.65-8.93-19.13-2.25-22.46,1.48-.74.18-3-1.3-2.22h0Z" transform="translate(-85.88 -182.25)"/><path class="cls-2" d="M176.78,311.5c6.69,3.33-.59,18.8-2.25,22.46a1.3,1.3,0,0,0,1.11,1.93H183a1.28,1.28,0,0,0,0-2.57h-7.31l1.11,1.93c2.39-5.23,9.85-21.73,1.33-26-1.47-.73-2.78,1.48-1.3,2.22h0Z" transform="translate(-85.88 -182.25)"/><path class="cls-2" d="M228.49,272.81c10.42,6.7,11.47,21.86,9.44,32.69-0.3,1.62,2.17,2.31,2.48.68,2.26-12.06.86-28.22-10.62-35.59-1.39-.9-2.68,1.33-1.3,2.22h0Z" transform="translate(-85.88 -182.25)"/><path class="cls-2" d="M242.82,312.93l-2.9-7.29c-0.25-.62-1.39-0.86-1.51,0l-1.12,7.78c-0.14,1,1.37,1.41,1.51.42l1.12-7.78h-1.51l2.9,7.29c0.37,0.93,1.89.52,1.51-.42h0Z" transform="translate(-85.88 -182.25)"/><path class="cls-2" d="M240.79,313.71L240,305.84a0.79,0.79,0,0,0-1.46-.4l-2.64,4.13a0.79,0.79,0,0,0,1.36.79l2.64-4.13-1.46-.4,0.84,7.87c0.11,1,1.68,1,1.57,0h0Z" transform="translate(-85.88 -182.25)"/><path class="cls-2" d="M238.49,306.24l4.27,5.81c0.59,0.81,2,0,1.36-.79l-4.27-5.81c-0.59-.81-2,0-1.36.79h0Z" transform="translate(-85.88 -182.25)"/><path class="cls-2" d="M100.36,270.59C88.88,278,87.49,294.13,89.74,306.19c0.3,1.62,2.78.94,2.48-.68-2-10.84-1-26,9.44-32.69,1.39-.89.1-3.11-1.3-2.22h0Z" transform="translate(-85.88 -182.25)"/><path class="cls-2" d="M88.84,313.35l2.9-7.29H90.22l1.12,7.78c0.14,1,1.66.57,1.51-.42l-1.12-7.78c-0.12-.86-1.27-0.62-1.51,0l-2.9,7.29c-0.37.94,1.14,1.35,1.51,0.42h0Z" transform="translate(-85.88 -182.25)"/><path class="cls-2" d="M90.93,313.71l0.84-7.87-1.46.4,2.64,4.13a0.79,0.79,0,0,0,1.36-.79l-2.64-4.13a0.79,0.79,0,0,0-1.46.4l-0.84,7.87c-0.11,1,1.46,1,1.57,0h0Z" transform="translate(-85.88 -182.25)"/><path class="cls-2" d="M90.3,305.45L86,311.26c-0.6.81,0.76,1.6,1.36,0.79l4.27-5.81c0.6-.81-0.76-1.6-1.36-0.79h0Z" transform="translate(-85.88 -182.25)"/><path class="cls-3" d="M100,296s-2.36,13.15,11.67,13.77,52.23,0,52.23,0a2.15,2.15,0,0,0,2.1-2.14V294" transform="translate(-85.88 -182.25)"/><path class="cls-3" d="M232.8,296s2.39,13.15-11.65,13.77-65,0-65,0a2.17,2.17,0,0,1-2.14-2.13V294" transform="translate(-85.88 -182.25)"/><path class="cls-4" d="M239.89,288.93c0,5.09-5.76,9.26-12.8,9.26H104.5c-7,0-12.8-4.17-12.8-9.26s5.76-9.26,12.8-9.26H227.1C234.13,279.66,239.89,283.83,239.89,288.93Z" transform="translate(-85.88 -182.25)"/><path class="cls-5" d="M146.94,304.2c0-.05,2.64-1.18,5.87-2.51l34.55-14.2c3.23-1.33,3.68-4.24,1-6.48l-3.4-2.84a22.11,22.11,0,0,0-11.21-4.37l-20.48-1-6.34-.31h-0.46l-6.34.31-20.48,1a22.11,22.11,0,0,0-11.2,4.37l-3.4,2.84c-2.68,2.24-2.23,5.15,1,6.48l34.55,14.2c3.23,1.33,5.87,2.45,5.87,2.51s0.05,0.07.11,0a0.35,0.35,0,0,1,.23,0C146.88,304.27,146.94,304.25,146.94,304.2Z" transform="translate(-85.88 -182.25)"/><circle class="cls-6" cx="17.43" cy="97.41" r="8.65"/><circle class="cls-6" cx="34.73" cy="97.41" r="8.65"/><circle class="cls-6" cx="52.04" cy="97.41" r="8.65"/><circle class="cls-6" cx="69.34" cy="97.41" r="8.65"/><circle class="cls-6" cx="86.65" cy="97.41" r="8.65"/><circle class="cls-6" cx="103.95" cy="97.41" r="8.65"/><circle class="cls-6" cx="121.26" cy="97.41" r="8.65"/><circle class="cls-6" cx="138.56" cy="97.41" r="8.65"/><path class="cls-3" d="M231.26,262.75C225.64,210.92,166,210.2,166,210.2h-0.22s-60,.73-65.29,53c-0.25,2.43-.28,3.6-0.31,5s4.48,2.6,10,2.6H221.58c5.56,0,10.07-1.24,10-2.75S231.54,265.31,231.26,262.75Z" transform="translate(-85.88 -182.25)"/><path class="cls-7" d="M236.1,273.56c0,3.36-4.55,6.1-10.1,6.1H106c-5.56,0-10.1-2.75-10.1-6.1s4.55-6.1,10.1-6.1H226C231.56,267.45,236.1,270.2,236.1,273.56Z" transform="translate(-85.88 -182.25)"/><path class="cls-7" d="M236.1,273.56c0,3.36-4.55,6.1-10.1,6.1H106c-5.56,0-10.1-2.75-10.1-6.1s4.55-6.1,10.1-6.1H226C231.56,267.45,236.1,270.2,236.1,273.56Z" transform="translate(-85.88 -182.25)"/><circle class="cls-8" cx="106.8" cy="59.67" r="16.98"/><circle class="cls-2" cx="106.8" cy="59.67" r="12.13"/><circle class="cls-8" cx="53.03" cy="59.67" r="16.98"/><circle class="cls-2" cx="53.03" cy="59.67" r="12.13"/><path class="cls-3" d="M199.17,224a93.26,93.26,0,0,0-11.58.26c-3.87.24-7.85,0.54-11.79,0.41,0.86,8.57-14.44,15.26,16.9,15.26,31.76,0,14.79-5.6,16.54-13.12A20.89,20.89,0,0,0,199.17,224Z" transform="translate(-85.88 -182.25)"/><path class="cls-3" d="M199.17,224a93.26,93.26,0,0,0-11.58.26c-2.27.14-4.59,0.31-6.91,0.39a12.13,12.13,0,0,0,24,.2A27.39,27.39,0,0,0,199.17,224Z" transform="translate(-85.88 -182.25)"/><path class="cls-3" d="M136.54,222.51c-4.87.44-9.72,1.07-14.59,1.33,0.43,9-18.64,16.15,17,16.15,36.73,0,16.27-6.92,16.93-15.69C150,221.64,143.07,221.92,136.54,222.51Z" transform="translate(-85.88 -182.25)"/><path class="cls-3" d="M136.54,222.51c-3.25.29-6.5,0.67-9.74,1A12.13,12.13,0,0,0,151,223c0-.08,0-0.16,0-0.25C146.38,221.81,141.35,222.07,136.54,222.51Z" transform="translate(-85.88 -182.25)"/><circle class="cls-3" cx="132.44" cy="71.73" r="2.53"/><circle class="cls-3" cx="43.39" cy="76.66" r="2.53"/><circle class="cls-3" cx="78" cy="76.66" r="2.53"/><circle class="cls-3" cx="26.08" cy="71.73" r="2.53"/><circle class="cls-9" cx="132.44" cy="71.73" r="2.53"/><circle class="cls-9" cx="43.39" cy="76.66" r="2.53"/><circle class="cls-9" cx="78" cy="76.66" r="2.53"/><circle class="cls-9" cx="26.08" cy="71.73" r="2.53"/><line class="cls-10" x1="75.42" y1="65.65" x2="84.07" y2="65.65"/><circle class="cls-9" cx="80.52" cy="36.82" r="2.53"/><circle class="cls-9" cx="71.87" cy="51.94" r="2.53"/><circle class="cls-9" cx="103.95" cy="44.4" r="2.53"/><circle class="cls-9" cx="43.39" cy="49.77" r="2.53"/><circle class="cls-9" cx="123.78" cy="51.94" r="2.53"/><circle class="cls-9" cx="52.04" cy="39.35" r="2.53"/><ellipse class="cls-11" cx="80.09" cy="153.25" rx="68.13" ry="3.94"/><path class="cls-2" d="M191.77,182.48c-4,4.29-12,4.7-17.42,5.14a106.33,106.33,0,0,1-10.92.36,0.75,0.75,0,0,0-.71.54l-3.43,10.29,1.34-.18-4.57-10.29a0.72,0.72,0,0,0-.63-0.36c-5.86.2-14.19,0.95-19.34-2.19a0.73,0.73,0,0,0-.74,1.27c4.87,3,12.79,2.74,18.29,2.42,0.83,0,2,.34,1.21-0.3,0.59,0.5,1,2.15,1.26,2.84l3.26,7.35a0.74,0.74,0,0,0,1.34-.18c1-3.12,1.85-6.42,3.15-9.44,0.4-.93-0.95-0.38.77-0.3s3.25,0,4.85-.09c7.08-.27,18.11-0.19,23.34-5.86a0.73,0.73,0,0,0-1-1h0Z" transform="translate(-85.88 -182.25)"/></g></g></svg>