<svg id="Layer_1" data-name="Layer 1" xmlns="http://www.w3.org/2000/svg" viewBox="0 0 541 492.31"><defs><style>.cls-1{fill:#ffaf00;}</style></defs><title>cart</title><path class="cls-1" d="M751,453.55C664,628,635.65,628,618.75,628H452.29c-58.3,0-103-32.45-113.82-82.71-0.33-1.54-33.29-154.64-41.72-197.42-4.14-21-14.67-35-52.54-35C227,312.92,213,299.71,213,283.38s14-29.54,31.21-29.54c62.84,0,103.29,29.54,113.9,83.18,8.34,42.32,41.2,194.91,41.53,196.47,6.64,30.84,35.83,35.45,52.64,35.45H610.53c17-17.29,55.74-83.91,84-140.62,7.37-14.75,26-21,41.55-14.1S758.37,438.78,751,453.55ZM425.77,647.69A49.23,49.23,0,1,0,475,696.92,49.22,49.22,0,0,0,425.77,647.69Zm177.23,0a49.23,49.23,0,1,0,49.23,49.23A49.22,49.22,0,0,0,603,647.69Z" transform="translate(-213 -253.85)"/></svg>