<svg id="Objects" xmlns="http://www.w3.org/2000/svg" viewBox="0 0 206.17 146.24"><defs><style>.cls-1{fill:#351c00;}</style></defs><title>details</title><path class="cls-1" d="M316.61,116.73l-1,.6c-0.7.39-1.72,1-3,1.8a86.5,86.5,0,0,0-10.72,7.93,91.12,91.12,0,0,0-14,15.22A75.84,75.84,0,0,0,281.09,153c-2,4-3.32,8.58-2.68,13.34A14.17,14.17,0,0,0,281,173a17.17,17.17,0,0,0,5.83,4.67c1.14,0.61,2.36,1.15,3.58,1.67s2.51,1,3.77,1.51c2.55,0.95,5.19,1.79,7.89,2.53a125.64,125.64,0,0,0,17,3.26c5.87,0.73,11.91,1.11,18.07,1.29s12.42,0.18,18.77.06l9.58-.15c3.21-.05,6.43,0,9.67-0.17,12.93-.56,26.1-1.1,39.13-2.79,6.52-.82,13-1.94,19.42-3.17a28,28,0,0,0,9.09-2.89A15.52,15.52,0,0,0,448.9,172a20.19,20.19,0,0,0,1.88-9,25.71,25.71,0,0,0-2-9,38.73,38.73,0,0,0-4.57-8c-0.9-1.24-1.9-2.43-2.86-3.66s-2-2.36-3-3.48a88.32,88.32,0,0,0-13.24-12.13c-2.36-1.76-4.8-3.33-7.25-4.84s-5-2.84-7.49-4.08a105.9,105.9,0,0,0-29.92-9.91,92.06,92.06,0,0,0-14-1.52c-4.46,0-8.74.21-12.72,0.49A105.11,105.11,0,0,0,333.33,110a80.59,80.59,0,0,0-12.5,4.62C318,115.92,316.61,116.73,316.61,116.73Zm-0.08-.14s1.43-.83,4.21-2.16a80.85,80.85,0,0,1,12.5-4.75A114.35,114.35,0,0,1,353.69,106c4-.37,8.25-0.7,12.79-0.81a86.14,86.14,0,0,1,14.19,1.22,116.78,116.78,0,0,1,15.08,3.5,95.79,95.79,0,0,1,15.35,6.27c2.56,1.24,5.09,2.65,7.61,4.12s5,3.12,7.4,4.91a85,85,0,0,1,13.5,12.38c1.05,1.14,2,2.38,3,3.58s1.94,2.43,2.88,3.74a40.34,40.34,0,0,1,4.71,8.4,27.3,27.3,0,0,1,2.07,9.58,21.28,21.28,0,0,1-2.1,9.7,16.92,16.92,0,0,1-6.76,7.38,29.16,29.16,0,0,1-9.54,2.91c-6.45,1.14-13,2.17-19.52,2.9s-13.12,1.22-19.67,1.53-13.07.69-19.54,0.87l-19.25.43c-6.35.13-12.62,0.29-18.8,0.22-12.34-.14-24.37-1.11-35.39-4.09q-4.13-1.11-8-2.53c-1.31-.48-2.59-1-3.83-1.51a39.15,39.15,0,0,1-3.7-1.76,18.56,18.56,0,0,1-6.24-5.14,15.49,15.49,0,0,1-2.79-7.29,20,20,0,0,1,.5-7.41,30.35,30.35,0,0,1,2.56-6.55,77.12,77.12,0,0,1,7.08-10.71,98.48,98.48,0,0,1,14.35-15A86.75,86.75,0,0,1,312.44,119c1.31-.82,2.34-1.4,3-1.78Z" transform="translate(-262.84 -105.18)"/><path class="cls-1" d="M395.77,131.47a2.33,2.33,0,0,1,1,1,1.27,1.27,0,0,1,.12.72,1.31,1.31,0,0,1-.35.69,2.92,2.92,0,0,1-.6.46,4.26,4.26,0,0,1-.68.35,4.89,4.89,0,0,1-1.5.35,5,5,0,0,1-1.56-.14l-0.38-.11-0.36-.13a7.11,7.11,0,0,1-.7-0.35,4.6,4.6,0,0,1-2.14-2.39l-0.29-.83,0.76-.13a15.61,15.61,0,0,1,3.44-.2A7.94,7.94,0,0,1,395.77,131.47Zm0,0a4.75,4.75,0,0,0-3.24-.21,23.94,23.94,0,0,0-3.1,1.07l0.47-1a5.34,5.34,0,0,0,1.67,1.54l0.52,0.31,0.27,0.15,0.27,0.13a6,6,0,0,0,1.16.38A4.15,4.15,0,0,0,395,134a3.62,3.62,0,0,0,.63-0.11,2.43,2.43,0,0,0,.59-0.25,0.83,0.83,0,0,0,.38-0.46,1.12,1.12,0,0,0,0-.64A1.91,1.91,0,0,0,395.77,131.47Z" transform="translate(-262.84 -105.18)"/><path class="cls-1" d="M387.61,126.29a2.51,2.51,0,0,1,0-.64,3.52,3.52,0,0,1,.53-1.67,3.84,3.84,0,0,1,2-1.64,3,3,0,0,1,1.67-.07,2.81,2.81,0,0,1,.44.16l0.19,0.1,0.24,0.16a2.57,2.57,0,0,1,.64.73,2.22,2.22,0,0,1,.16,2,2.39,2.39,0,0,1-.14.27l-0.12.16a2,2,0,0,1-.38.37,2.49,2.49,0,0,1-.78.4,4.63,4.63,0,0,1-1.35.18c-0.38,0-.75,0-1.08,0a16,16,0,0,1-2.26-.21,16,16,0,0,1,2.14-.73,16,16,0,0,0,2-.59,1.25,1.25,0,0,0,.32-0.22,0.3,0.3,0,0,0,.07-0.09l0.07-.11s0,0,0,0a0.73,0.73,0,0,0-.11-0.55,0.91,0.91,0,0,0-.52-0.43,1.84,1.84,0,0,0-.87-0.06,3,3,0,0,0-.91.3,4.2,4.2,0,0,0-.77.52,4.59,4.59,0,0,0-1,1.16A4.52,4.52,0,0,0,387.61,126.29Z" transform="translate(-262.84 -105.18)"/><path class="cls-1" d="M376.28,121.19c0.53-.54,1.09-1,1.65-1.51a7.5,7.5,0,0,0,1.4-1.47,2.29,2.29,0,0,0,.32-0.77,1.08,1.08,0,0,0,0-.19v0c0,0.1,0,0,0,0v-0.14a0.36,0.36,0,0,0,0-.16,1.37,1.37,0,0,0,0-.15,1.76,1.76,0,0,0-1-1,1.39,1.39,0,0,0-.65-0.1l-0.12,0-0.24.08a1.59,1.59,0,0,0-.28.17,3,3,0,0,0-1,1.4,5,5,0,0,0-.28.94c-0.07.36-.13,0.68-0.16,1a11.92,11.92,0,0,0,0,2.15l-0.09-.07s0.07,0,.1-0.05a0.13,0.13,0,0,0,0-.18,0.18,0.18,0,0,1,.14.2,0.23,0.23,0,0,1-.22.24h-0.05l0-.08a6.88,6.88,0,0,1-.69-2.19,7.82,7.82,0,0,1-.08-1.17,6.27,6.27,0,0,1,.15-1.22,4.15,4.15,0,0,1,1.32-2.26,3,3,0,0,1,.66-0.4l0.28-.11a3.88,3.88,0,0,1,.42-0.1,2.73,2.73,0,0,1,1.51.18,3.18,3.18,0,0,1,1.88,2.12,2.52,2.52,0,0,1,.06.39,2.25,2.25,0,0,1,0,.39v0.26l0,0.09a2.42,2.42,0,0,1-.09.35,3.1,3.1,0,0,1-.7,1.17,6.27,6.27,0,0,1-2,1.35C377.67,120.65,377,120.95,376.28,121.19Z" transform="translate(-262.84 -105.18)"/><path class="cls-1" d="M359.36,138.36a3.54,3.54,0,0,0,.31.84,2.26,2.26,0,0,0,.63.78,1.55,1.55,0,0,0,1.18.33,2.09,2.09,0,0,0,1.24-.64,2.2,2.2,0,0,0,.42-0.6c0.05-.12.08-0.2,0.13-0.36l0.07-.36a4.76,4.76,0,0,0-.08-1.61c-0.06-.28-0.14-0.56-0.22-0.84s-0.18-.6-0.28-0.88a7.72,7.72,0,0,0-.67-1.54,1.23,1.23,0,0,0-.38-0.42,0.52,0.52,0,0,0-.45-0.08,2.39,2.39,0,0,1-.28.08,2.73,2.73,0,0,0-.35.22,2.11,2.11,0,0,0-.49.52,4.55,4.55,0,0,0-.63,1.36,7,7,0,0,0-.28,2.32A4.93,4.93,0,0,0,359.36,138.36Zm0,0a6.32,6.32,0,0,1-.15-0.89,12.13,12.13,0,0,1,0-2.39,6.32,6.32,0,0,1,.34-1.63,2.92,2.92,0,0,1,.5-0.89,3.68,3.68,0,0,1,.33-0.36,3.07,3.07,0,0,1,.53-0.33,1.84,1.84,0,0,1,1.37-.1,2.45,2.45,0,0,1,1.07.77,5.78,5.78,0,0,1,1,1.95c0.11,0.34.2,0.65,0.28,1a6,6,0,0,1,.16,1.06,4.74,4.74,0,0,1-.3,2.13,3.86,3.86,0,0,1-.24.5,4.51,4.51,0,0,1-.3.42,3,3,0,0,1-.76.65,2.87,2.87,0,0,1-1.68.42,2,2,0,0,1-1.27-.58,3,3,0,0,1-.57-0.87A4.17,4.17,0,0,1,359.36,138.36Z" transform="translate(-262.84 -105.18)"/><path class="cls-1" d="M328.67,129.13a7.6,7.6,0,0,0-.72-0.68,5.66,5.66,0,0,0-.93-0.64,4.47,4.47,0,0,0-1.35-.5,3.57,3.57,0,0,0-1.62.06,2.55,2.55,0,0,0-1.36.87,2.17,2.17,0,0,0-.45,1.45,1.56,1.56,0,0,0,.23.65,1.93,1.93,0,0,0,.49.5,3.84,3.84,0,0,0,1.59.62c0.63,0.11,1.29.15,2,.23s1.33,0.34,1.93.45a2,2,0,0,0,1.48,0,0.34,0.34,0,0,0,.09-0.13c0-.05,0-0.09,0-0.13a1.08,1.08,0,0,0,0-.34,2.89,2.89,0,0,0-.22-0.64,5.41,5.41,0,0,0-.58-1A8.41,8.41,0,0,0,328.67,129.13Zm0,0s0.25,0.26.65,0.74a9.78,9.78,0,0,1,.68.92,3.06,3.06,0,0,1,.32.65,1.76,1.76,0,0,1,.08.41,1.63,1.63,0,0,1,0,.25,0.66,0.66,0,0,1-.1.22,1.32,1.32,0,0,1-.87.46,5.45,5.45,0,0,1-1,.1c-0.63,0-1.35,0-1.93,0a13.4,13.4,0,0,1-2.13.1,4.36,4.36,0,0,1-2.4-.8,3.17,3.17,0,0,1-.94-1.08,2.72,2.72,0,0,1-.31-1.4,3.18,3.18,0,0,1,1.13-2.28,3.42,3.42,0,0,1,2.09-.77,4.68,4.68,0,0,1,1.83.32,7.13,7.13,0,0,1,2.19,1.46C328.43,128.86,328.67,129.13,328.67,129.13Z" transform="translate(-262.84 -105.18)"/><path class="cls-1" d="M339.57,121.1a4,4,0,0,0-3.15-.67,2.07,2.07,0,0,0-1.2.69,0.55,0.55,0,0,0-.12.41v0s0,0,0,0,0,0.07,0,.06a0.44,0.44,0,0,1,0,.07,0.77,0.77,0,0,0,.1.18,1.44,1.44,0,0,0,.35.32,2.32,2.32,0,0,0,.53.24c0.41,0.13,1,.24,1.51.38a18.78,18.78,0,0,0,3.23.64l-0.22.22a2.17,2.17,0,0,0-.16-1.4A3,3,0,0,0,339.57,121.1Zm0,0a4.76,4.76,0,0,1,1,1.11,3.11,3.11,0,0,1,.52,1.51v0.17l-0.22.05a12.18,12.18,0,0,1-3.49.33,7.23,7.23,0,0,1-1.8-.26,3.22,3.22,0,0,1-1-.49,2.38,2.38,0,0,1-.75-0.94,2.17,2.17,0,0,1-.17-0.62,1.86,1.86,0,0,1,0-.35,0.6,0.6,0,0,1,0-.15,0.63,0.63,0,0,0,0-.08l0-.08a1.82,1.82,0,0,1,.71-1,2.93,2.93,0,0,1,1.92-.42,6.93,6.93,0,0,1,1.7.42A6.05,6.05,0,0,1,339.57,121.1Z" transform="translate(-262.84 -105.18)"/><path class="cls-1" d="M344.66,128.74a3.68,3.68,0,0,0-.42.74,2.5,2.5,0,0,0-.22.94,1.67,1.67,0,0,0,.34,1.12,1.11,1.11,0,0,0,1.07.47,2,2,0,0,0,.62-0.23,3.88,3.88,0,0,0,.64-0.43,5.84,5.84,0,0,0,1.05-1.16,10.17,10.17,0,0,0,.8-1.45c0.26-.53.49-1.06,0.67-1.55a1.7,1.7,0,0,0,.13-1,0.52,0.52,0,0,0-.17-0.12s-0.1,0,0,0l-0.11,0a0.83,0.83,0,0,0-.18,0,1.8,1.8,0,0,0-.63.1,5.8,5.8,0,0,0-1.31.63,9.7,9.7,0,0,0-1.75,1.39A5.87,5.87,0,0,0,344.66,128.74Zm0,0a22.84,22.84,0,0,1,2.09-2.31,8.76,8.76,0,0,1,1.21-1,2.52,2.52,0,0,1,.92-0.4,1.66,1.66,0,0,1,.24,0h0.11l0.21,0a1.55,1.55,0,0,1,.62.21,1.67,1.67,0,0,1,.7,1.2,3.77,3.77,0,0,1-.06,1.13,7.78,7.78,0,0,1-.66,1.9,6.43,6.43,0,0,1-1.12,1.69,5.2,5.2,0,0,1-1.62,1.2,4.3,4.3,0,0,1-.9.31,2.76,2.76,0,0,1-1,.08,1.74,1.74,0,0,1-1.37-1,2.2,2.2,0,0,1-.17-1.32,3.51,3.51,0,0,1,.33-0.93A4.47,4.47,0,0,1,344.66,128.74Z" transform="translate(-262.84 -105.18)"/><path class="cls-1" d="M363.84,120.19a3.33,3.33,0,0,0,3.35,1.17,2.11,2.11,0,0,0,1.29-1,1.13,1.13,0,0,0,.15-0.63,0.88,0.88,0,0,0-.24-0.49,3.44,3.44,0,0,0-.55-0.53l-0.72-.56q-0.73-.56-1.46-1.1a17.31,17.31,0,0,0-3.1-1.88l0.59-.54c0.06,1-.11,2-0.12,2.89a5.44,5.44,0,0,0,.18,1.38A3.81,3.81,0,0,0,363.84,120.19Zm0,0a5.51,5.51,0,0,1-1.08-2.61,20.41,20.41,0,0,0-.54-2.74l-0.22-.66,0.81,0.12a9.88,9.88,0,0,1,3.75,1.44,12.41,12.41,0,0,1,1.59,1.2c0.26,0.23.48,0.44,0.72,0.7a4.45,4.45,0,0,1,.69.91,2.13,2.13,0,0,1,.24,1.32,2.1,2.1,0,0,1-.58,1.11,2.89,2.89,0,0,1-2,.84,4.07,4.07,0,0,1-1.93-.44A4.54,4.54,0,0,1,363.84,120.19Z" transform="translate(-262.84 -105.18)"/><path class="cls-1" d="M410.06,131.2a4.83,4.83,0,0,0,.14.85,4.15,4.15,0,0,0,.34.92,3.29,3.29,0,0,0,.74,1,2.21,2.21,0,0,0,1.21.6,2.17,2.17,0,0,0,1.35-.26,1.19,1.19,0,0,0,.64-0.92,2.81,2.81,0,0,0-.33-1.27c-0.23-.49-0.55-1-0.82-1.54s-0.59-1-.9-1.45a3.29,3.29,0,0,0-1-1,1.19,1.19,0,0,0-.33-0.11,1.24,1.24,0,0,0-.28,0,0.61,0.61,0,0,0-.47.26,2.17,2.17,0,0,0-.34,1.15,6.92,6.92,0,0,0,0,1Zm0,0-0.1-.85c0-.27-0.07-0.6-0.11-1A2.89,2.89,0,0,1,410,128a1.06,1.06,0,0,1,.66-0.59,1.74,1.74,0,0,1,.49-0.08,1.9,1.9,0,0,1,.45,0,3.86,3.86,0,0,1,1.68.93,9.13,9.13,0,0,1,1.3,1.41,9.59,9.59,0,0,1,1.05,1.68,3.37,3.37,0,0,1,.3,2.34,2.4,2.4,0,0,1-.66,1.08,2.59,2.59,0,0,1-1,.56,2.94,2.94,0,0,1-3.24-1.19,5.38,5.38,0,0,1-.84-2.14A6.25,6.25,0,0,1,410.06,131.2Z" transform="translate(-262.84 -105.18)"/><path class="cls-1" d="M311.37,127.65a4.54,4.54,0,0,0-1.13,1.19,1.55,1.55,0,0,0-.21,1.46,1.35,1.35,0,0,0,1.06.74,1.68,1.68,0,0,0,1.17-.29,5.35,5.35,0,0,0,1.69-2.18c0.13-.24.24-0.47,0.4-0.73s0.31-.5.45-0.72a3,3,0,0,0,.6-1.21l0.38,0.43a2.73,2.73,0,0,0-1.09-.17,4.28,4.28,0,0,0-1.18.24A8.15,8.15,0,0,0,311.37,127.65Zm0,0a24.08,24.08,0,0,1,2-1.49,4.29,4.29,0,0,1,2.57-.77l0.31,0,0.08,0.41a3.55,3.55,0,0,1-.32,1.93c-0.12.27-.23,0.51-0.31,0.74s-0.2.51-.31,0.77a6.47,6.47,0,0,1-1,1.57,4,4,0,0,1-1.62,1.15,2.66,2.66,0,0,1-2.05-.07,2.36,2.36,0,0,1-.79-0.62,1.89,1.89,0,0,1-.41-0.89,2.09,2.09,0,0,1,.55-1.65A8.12,8.12,0,0,1,311.37,127.65Z" transform="translate(-262.84 -105.18)"/><path class="cls-1" d="M354.28,115.35s-0.29-.06-0.78-0.21-1.18-.42-2-0.6a3.92,3.92,0,0,0-1.21-.09,2.74,2.74,0,0,0-1.14.4,1.23,1.23,0,0,0-.56.78,1.11,1.11,0,0,0,.31,1,2.11,2.11,0,0,0,1,.7,3.52,3.52,0,0,0,1.32.12,18.82,18.82,0,0,0,2.75-.61l1.1-.27c0.15,0.06.2-.24,0.1-0.4a1.67,1.67,0,0,0-.57-0.49l0.21,0a1.21,1.21,0,0,1,.6.23,0.84,0.84,0,0,1,.28.47,0.68,0.68,0,0,1,0,.36,0.73,0.73,0,0,1-.11.19h0l-0.06.05h0l0,0-0.05,0a10.3,10.3,0,0,1-1.09.62,10.69,10.69,0,0,1-2.88,1.17,4.31,4.31,0,0,1-2,0,3.69,3.69,0,0,1-1.83-1.19,3.07,3.07,0,0,1-.54-1A2.86,2.86,0,0,1,347,116a3.35,3.35,0,0,1,0-.36,2.33,2.33,0,0,1,0-.24,2.6,2.6,0,0,1,1.42-1.78,3.52,3.52,0,0,1,1.85-.36,4,4,0,0,1,1.53.43,9.89,9.89,0,0,1,1.81,1.2Z" transform="translate(-262.84 -105.18)"/><path class="cls-1" d="M334.52,140.13s-0.31.2-.81,0.62a6.23,6.23,0,0,0-.83.82,4.14,4.14,0,0,0-.75,1.28,3,3,0,0,0-.14,1.64,1.69,1.69,0,0,0,.86,1.24,4.38,4.38,0,0,0,1.72,0,3.52,3.52,0,0,0,1.61-.68,4.41,4.41,0,0,0,1.14-1.41,7.42,7.42,0,0,0,.63-1.84,10.5,10.5,0,0,0,.3-1.9,2.53,2.53,0,0,0-.07-0.82,1,1,0,0,0-.14-0.26l-0.18-.12-0.14-.05a2.15,2.15,0,0,0-1.38.28,7.07,7.07,0,0,0-1,.6Zm0,0,0.81-.62c0.26-.2.57-0.44,1-0.7a2.67,2.67,0,0,1,1.51-.52l0.27,0.06,0.2,0.08a1.14,1.14,0,0,1,.4.43,3.07,3.07,0,0,1,.33,1,10.26,10.26,0,0,1,.14,2.11,6.51,6.51,0,0,1-.41,2.31,4.79,4.79,0,0,1-1.51,2.09,4.25,4.25,0,0,1-2.48.88,6.3,6.3,0,0,1-1.21-.06,3,3,0,0,1-1.27-.45,2.27,2.27,0,0,1-.79-1.06,3,3,0,0,1-.19-1.12,4,4,0,0,1,.54-1.85,6.86,6.86,0,0,1,1.88-2C334.2,140.34,334.52,140.13,334.52,140.13Z" transform="translate(-262.84 -105.18)"/><path class="cls-1" d="M374.18,135.58a4.84,4.84,0,0,0-.15,2.29,2.41,2.41,0,0,0,.46,1,2.19,2.19,0,0,0,.85.64,2.55,2.55,0,0,0,2,0,2.44,2.44,0,0,0,.4-0.24l0.2-.16,0.14-.15a3.07,3.07,0,0,0,.49-0.78,3.24,3.24,0,0,0,.2-1.79c0-.07,0-0.13-0.05-0.24l-0.06-.21a4.14,4.14,0,0,0-.17-0.46,10.44,10.44,0,0,0-.48-0.94l-0.57-1c-0.2-.35-0.36-0.7-0.53-1a11.82,11.82,0,0,0-1.13-1.93l0.59-.09a11.72,11.72,0,0,0-1.23,2.49C374.78,133.79,374.5,134.69,374.18,135.58Zm0,0a23.7,23.7,0,0,0,.74-2.72,19.71,19.71,0,0,1,.78-2.78l0.17-.43,0.41,0.35a10.61,10.61,0,0,1,1.65,1.8c0.49,0.65.9,1.21,1.39,1.88a7.79,7.79,0,0,1,.64,1.1,5.78,5.78,0,0,1,.25.63c0,0.1.07,0.23,0.1,0.35s0,0.2.06,0.33a4.08,4.08,0,0,1-.54,2.73,3.59,3.59,0,0,1-.93,1.05c-0.09.07-.21,0.15-0.31,0.21l-0.29.16a3.15,3.15,0,0,1-.67.22,3.33,3.33,0,0,1-2.53-.49,2.62,2.62,0,0,1-.85-0.92,3,3,0,0,1-.35-1.16A6.64,6.64,0,0,1,374.18,135.58Z" transform="translate(-262.84 -105.18)"/><path class="cls-1" d="M404.7,121v-0.19a1.45,1.45,0,0,0-.13-0.52,2.68,2.68,0,0,0-1.4-1.23,5.88,5.88,0,0,0-1.21-.38,7.36,7.36,0,0,0-1.36-.16,2.25,2.25,0,0,0-1.13.18,0.16,0.16,0,0,0-.07.09,0.07,0.07,0,0,0,0,.07,1,1,0,0,0,0,.38c0,0.13.14,0.48,0.1,0.53l0.16,0.37a1.05,1.05,0,0,1,.11.19,5.93,5.93,0,0,0,.9,1,6,6,0,0,0,1.11.76,3.41,3.41,0,0,0,1.16.39,1.63,1.63,0,0,0,1-.16,1.2,1.2,0,0,0,.56-0.58,1.47,1.47,0,0,0,.16-0.51Zm0,0,0,0.19a1.73,1.73,0,0,1-.14.52,1.54,1.54,0,0,1-.51.68,2.26,2.26,0,0,1-1.08.4,5.79,5.79,0,0,1-2.9-.52,4.75,4.75,0,0,1-1.46-1c-0.12-.14-0.25-0.3-0.36-0.45l-0.19-.35,0-.09h0v0l0-.06,0-.11-0.07-.23a2,2,0,0,1-.1-0.5,2.2,2.2,0,0,1,.14-1.2,1.67,1.67,0,0,1,1-.93,3,3,0,0,1,1.93.06,7.46,7.46,0,0,1,1.42.64,10.23,10.23,0,0,1,1.13.75,3.66,3.66,0,0,1,1.25,1.53,1.69,1.69,0,0,1,.11.53V121Z" transform="translate(-262.84 -105.18)"/><path class="cls-1" d="M424.65,137.18a5.45,5.45,0,0,0,.71.52,3.88,3.88,0,0,0,.92.42,2.72,2.72,0,0,0,1.26.11,2.13,2.13,0,0,0,1.23-.63,1.41,1.41,0,0,0,.32-0.56,1,1,0,0,0,.06-0.34,1.74,1.74,0,0,0,0-.33,2.34,2.34,0,0,0-.66-1.22,3.42,3.42,0,0,0-.31-0.25l-0.31-.23c-0.23-.16-0.48-0.32-0.74-0.46a15,15,0,0,0-1.57-.79A5.37,5.37,0,0,0,424,133a1.59,1.59,0,0,0-.64.06h0c0.06,0,0,0,0,0l-0.09.06-0.18.11a2.08,2.08,0,0,0-.2.18,1.29,1.29,0,0,0-.09,1.25,4.15,4.15,0,0,0,.61,1.13,6.3,6.3,0,0,0,.65.78C424.4,137,424.65,137.18,424.65,137.18Zm0,0s-0.25-.2-0.66-0.59a8.76,8.76,0,0,1-1.57-1.78,2,2,0,0,1-.23-1.75,2.19,2.19,0,0,1,.31-0.49l0.15-.16,0.08-.08a0.35,0.35,0,0,1,.08-0.07l0.06,0a2.37,2.37,0,0,1,1.05-.42A4.93,4.93,0,0,1,426,132a7.75,7.75,0,0,1,1.92.81,7.86,7.86,0,0,1,.87.6,5.49,5.49,0,0,1,.43.37,4.51,4.51,0,0,1,.37.42,3.21,3.21,0,0,1,.67,2.18,2.28,2.28,0,0,1-.11.56,2.1,2.1,0,0,1-.23.49,2.25,2.25,0,0,1-.74.75,2.93,2.93,0,0,1-1.66.41,4.3,4.3,0,0,1-2.2-.86A7.18,7.18,0,0,1,424.65,137.18Z" transform="translate(-262.84 -105.18)"/><path class="cls-1" d="M310.61,147.5a2.33,2.33,0,0,1-1.36-.24,1.27,1.27,0,0,1-.52-0.51,1.31,1.31,0,0,1-.12-0.76,2.92,2.92,0,0,1,.21-0.72,4.26,4.26,0,0,1,.34-0.68,4.89,4.89,0,0,1,1-1.16,5,5,0,0,1,1.34-.8l0.37-.13,0.37-.11a7.11,7.11,0,0,1,.77-0.13,4.6,4.6,0,0,1,3.14.68l0.72,0.5-0.54.55a15.6,15.6,0,0,1-2.67,2.18A7.94,7.94,0,0,1,310.61,147.5Zm0,0a4.75,4.75,0,0,0,2.75-1.73,23.93,23.93,0,0,0,1.88-2.69l0.18,1.05a5.34,5.34,0,0,0-2.25-.27l-0.61.05-0.31,0L312,144a6,6,0,0,0-1.16.38,4.15,4.15,0,0,0-1.07.67,3.61,3.61,0,0,0-.45.46,2.43,2.43,0,0,0-.33.55,0.83,0.83,0,0,0,0,.6,1.12,1.12,0,0,0,.38.51A1.91,1.91,0,0,0,310.61,147.5Z" transform="translate(-262.84 -105.18)"/><path class="cls-1" d="M395.37,144.9a2.52,2.52,0,0,1,.37.53,3.52,3.52,0,0,1,.42,1.7,3.84,3.84,0,0,1-.88,2.47,3,3,0,0,1-1.38.93,2.81,2.81,0,0,1-.46.1l-0.21,0h-0.29a2.57,2.57,0,0,1-.93-0.28,2.22,2.22,0,0,1-1.18-1.61,2.4,2.4,0,0,1,0-.3c0-.07,0-0.07,0-0.2a2,2,0,0,1,.13-0.52,2.49,2.49,0,0,1,.46-0.75,4.63,4.63,0,0,1,1.06-.86c0.32-.21.64-0.39,0.93-0.56a16,16,0,0,1,2-1,16,16,0,0,1-1.44,1.75,16,16,0,0,0-1.42,1.57,1.25,1.25,0,0,0-.16.36,0.3,0.3,0,0,0,0,.11,1,1,0,0,0,0,.12s0,0,0,0a0.73,0.73,0,0,0,.38.41,0.91,0.91,0,0,0,.68.09,1.84,1.84,0,0,0,.77-0.41,3,3,0,0,0,.62-0.73,4.2,4.2,0,0,0,.38-0.85,4.59,4.59,0,0,0,.2-1.49A4.53,4.53,0,0,0,395.37,144.9Z" transform="translate(-262.84 -105.18)"/><path class="cls-1" d="M298.47,135.37s-0.68.78-1.81,2.18-2.69,3.45-4.4,6a70,70,0,0,0-5.12,9.11,25.69,25.69,0,0,0-1.82,5.47A15.88,15.88,0,0,0,285,161v0.72c0,0.25,0,.53.05,0.75a12.07,12.07,0,0,0,.24,1.41,10.76,10.76,0,0,0,2.56,5A8.25,8.25,0,0,0,290,170.6a22.85,22.85,0,0,0,2.68,1,6.51,6.51,0,0,1,1.42.75c0.43,0.3.8,0.61,1.15,0.9a10.71,10.71,0,0,0,2.15,1.41,10.83,10.83,0,0,0,4.58,1.12c1.5,0,2.91-.17,4.17-0.24a14.29,14.29,0,0,1,3.3.06,6.12,6.12,0,0,1,2,.67c0.42,0.25.63,0.4,0.63,0.4s-0.23-.13-0.67-0.32a6.7,6.7,0,0,0-2-.44,13.85,13.85,0,0,0-3.19.23,35.88,35.88,0,0,1-4.23.58,11.25,11.25,0,0,1-5.11-.95,12,12,0,0,1-2.47-1.46,7.68,7.68,0,0,0-2.24-1.36,22.92,22.92,0,0,1-2.86-1,9,9,0,0,1-2.64-1.94,12.34,12.34,0,0,1-3-5.77,15.26,15.26,0,0,1,.06-6.45,25.1,25.1,0,0,1,2.06-5.77,48.85,48.85,0,0,1,2.79-4.91c1-1.51,1.93-2.89,2.88-4.13a60,60,0,0,1,4.93-5.67c0.63-.65,1.16-1.13,1.51-1.46Z" transform="translate(-262.84 -105.18)"/><path class="cls-1" d="M374.15,187.48l0.09,0.24c0.06,0.15.15,0.39,0.29,0.67a11.7,11.7,0,0,0,1.42,2.33,15.31,15.31,0,0,0,3,2.91,19.36,19.36,0,0,0,4.8,2.52,40.28,40.28,0,0,0,6.29,1.67c2.3,0.44,4.72.93,7.27,1.24a56.43,56.43,0,0,0,7.9.51,72.74,72.74,0,0,0,8.16-.53c2.72-.33,5.44-0.7,8.08-1.14a71.74,71.74,0,0,0,7.67-1.67,41.92,41.92,0,0,0,6.82-2.44,19.77,19.77,0,0,0,5.21-3.64,19.4,19.4,0,0,0,3.28-4.3,8.12,8.12,0,0,0,1.11-3.93,5.33,5.33,0,0,0-.64-2.57,3.61,3.61,0,0,0-.54-0.79l0.12-.12,0.19,0.17a4.6,4.6,0,0,1,.5.57,5.71,5.71,0,0,1,1,2.7,8.56,8.56,0,0,1-.8,4.44,17.79,17.79,0,0,1-3.2,4.84,18.92,18.92,0,0,1-5.48,4.18,32.91,32.91,0,0,1-7.15,2.55,68.46,68.46,0,0,1-7.9,1.45c-2.71.34-5.47,0.52-8.22,0.61s-5.52.11-8.23,0.13-5.38,0-8-.12a62.77,62.77,0,0,1-7.46-.7,31.4,31.4,0,0,1-6.54-1.78,18.32,18.32,0,0,1-5-3,13.62,13.62,0,0,1-2.9-3.38,11.61,11.61,0,0,1-1.16-2.61c-0.1-.32-0.14-0.56-0.18-0.72l-0.05-.25Z" transform="translate(-262.84 -105.18)"/><path class="cls-1" d="M378.91,187.66s0.2,0.2.6,0.53a16.21,16.21,0,0,0,1.77,1.34,18,18,0,0,0,3,1.59,18.35,18.35,0,0,0,4.22,1.11c1.6,0.26,3.37.36,5.27,0.54l5.94,0.61a59.34,59.34,0,0,0,6.39.29c2.18,0,4.39-.17,6.59-0.37s4.4-.47,6.56-0.72,4.28-.5,6.29-0.87a48.39,48.39,0,0,0,5.69-1.34,26.42,26.42,0,0,0,4.77-2,14.72,14.72,0,0,0,3.42-2.65,9.41,9.41,0,0,0,1.85-2.76,7,7,0,0,0,.55-2.1c0-.51,0-0.78,0-0.78l0.16,0s0.05,0.27.11,0.81a7.21,7.21,0,0,1-.24,2.31,9.41,9.41,0,0,1-1.66,3.24,13.47,13.47,0,0,1-3.48,3.18,22.06,22.06,0,0,1-5,2.41,31.82,31.82,0,0,1-6,1.39c-2.09.3-4.25,0.49-6.43,0.63s-4.42.19-6.64,0.17l-6.63,0c-2.19,0-4.34,0-6.42.09s-4.11.06-6-.05a41.56,41.56,0,0,1-5.4-.6,16.57,16.57,0,0,1-4.44-1.49,14.08,14.08,0,0,1-3-2,15.12,15.12,0,0,1-1.58-1.66c-0.33-.42-0.48-0.65-0.48-0.65Z" transform="translate(-262.84 -105.18)"/><path class="cls-1" d="M393,186.84l0.63,0.75a9.13,9.13,0,0,0,1.84,1.73,7.07,7.07,0,0,0,3.33,1c0.67,0.08,1.32.1,2,.11a19.14,19.14,0,0,0,2.08-.09,20.61,20.61,0,0,0,4-.76,12.09,12.09,0,0,0,3.27-1.39,5.74,5.74,0,0,0,1.8-1.73,4.28,4.28,0,0,0,.43-0.87l-0.06.25a3.19,3.19,0,0,1-.24.69,5.41,5.41,0,0,1-1.67,2,11.36,11.36,0,0,1-3.32,1.7,17.92,17.92,0,0,1-4.17.89,20,20,0,0,1-2.17.06,16.78,16.78,0,0,1-2.09-.19,7.2,7.2,0,0,1-3.51-1.33,8,8,0,0,1-1.69-2C393.21,187.16,393,186.84,393,186.84Z" transform="translate(-262.84 -105.18)"/><path class="cls-1" d="M418.28,185.13l0.7,0.28c0.44,0.19,1.09.41,1.85,0.67a17.46,17.46,0,0,0,2.67.64,12.33,12.33,0,0,0,3.09.11,9.5,9.5,0,0,0,3-.78,8.59,8.59,0,0,0,2.27-1.45,7.13,7.13,0,0,0,1.26-1.47c0.26-.4.38-0.65,0.38-0.65l-0.06.19a3.61,3.61,0,0,1-.18.53,7,7,0,0,1-.39.79,6.08,6.08,0,0,1-.68.93,8.07,8.07,0,0,1-2.28,1.78,9,9,0,0,1-3.2.95,11,11,0,0,1-3.3-.22,14.27,14.27,0,0,1-2.7-.92,14.69,14.69,0,0,1-1.76-1C418.5,185.3,418.28,185.13,418.28,185.13Z" transform="translate(-262.84 -105.18)"/><path class="cls-1" d="M288.28,179.17s-0.07.35-.12,1a7.37,7.37,0,0,0,.2,2.74,11.82,11.82,0,0,0,1.9,3.79l1.56,2.2a28.77,28.77,0,0,0,1.85,2.3,31.45,31.45,0,0,0,5,4.37,34,34,0,0,0,6.49,3.71,32.15,32.15,0,0,0,7.74,2.24,50.51,50.51,0,0,0,8.32.6c2.8,0,5.59-.14,8.35-0.31s5.46-.34,8.05-0.65a50.48,50.48,0,0,0,13.73-3.23,32.33,32.33,0,0,0,5-2.63,26.14,26.14,0,0,0,3.44-2.68,21.85,21.85,0,0,0,2-2l0.64-.78,0.14,0.09-0.53.87a20.83,20.83,0,0,1-1.75,2.3,23,23,0,0,1-3.29,3.09,26.51,26.51,0,0,1-5,3.07,33.83,33.83,0,0,1-6.53,2.37,48.38,48.38,0,0,1-7.61,1.29c-2.65.24-5.4,0.35-8.18,0.42s-5.62,0-8.44-.2a79.31,79.31,0,0,1-8.38-1.06,58.26,58.26,0,0,1-7.93-2,32.77,32.77,0,0,1-7-3.29,23.81,23.81,0,0,1-5.27-4.57c-0.37-.4-0.68-0.85-1-1.25s-0.57-.82-0.85-1.22c-0.54-.84-1-1.58-1.47-2.35a11.35,11.35,0,0,1-1.65-4.28,7.9,7.9,0,0,1,.2-2.95c0.18-.65.31-1,0.31-1Z" transform="translate(-262.84 -105.18)"/><path class="cls-1" d="M291.49,180.15v0.22a4.8,4.8,0,0,0,.06.63,6.65,6.65,0,0,0,.76,2.21,13.63,13.63,0,0,0,2.19,2.91,32.85,32.85,0,0,0,3.58,3.18,37.44,37.44,0,0,0,4.75,3.08,45,45,0,0,0,5.75,2.75,31.43,31.43,0,0,0,6.63,1.8,41.77,41.77,0,0,0,7.09.49c2.38,0,4.76-.16,7.09-0.33s4.63-.38,6.86-0.64,4.35-.5,6.36-0.8a55.35,55.35,0,0,0,5.59-1.13,35.84,35.84,0,0,0,4.53-1.56,24,24,0,0,0,3.27-1.75,17.8,17.8,0,0,0,1.95-1.41l0.67-.54,0.12,0.11-0.57.65a17.06,17.06,0,0,1-1.77,1.71,20.71,20.71,0,0,1-3.18,2.17,26.65,26.65,0,0,1-4.59,2,38.45,38.45,0,0,1-5.72,1.44,63.91,63.91,0,0,1-6.48.8c-2.25.17-4.58,0.33-7,.39a64.05,64.05,0,0,1-7.2-.22c-2.41-.2-4.79-0.51-7.14-0.89s-4.63-.86-6.82-1.45a33.45,33.45,0,0,1-6.15-2.31,27.75,27.75,0,0,1-4.95-3.26,26.64,26.64,0,0,1-3.54-3.55,11.88,11.88,0,0,1-2-3.35,6.89,6.89,0,0,1-.46-2.47,5.09,5.09,0,0,1,.06-0.66l0-.22h0.16Z" transform="translate(-262.84 -105.18)"/><path class="cls-1" d="M300.39,183.45a1.31,1.31,0,0,1,.56.4,8.23,8.23,0,0,1,.83,1.57,4.21,4.21,0,0,0,.63.92,5.63,5.63,0,0,0,.91.83,6.28,6.28,0,0,0,2.43,1.07,5.83,5.83,0,0,0,1.36.15,8.67,8.67,0,0,0,1.32-.11,10,10,0,0,0,2.31-.68,15.47,15.47,0,0,0,1.56-.77l0.58-.34a6.19,6.19,0,0,1-.49.47,9.39,9.39,0,0,1-1.45,1.06,8.77,8.77,0,0,1-2.38,1,7.31,7.31,0,0,1-1.47.19,6.56,6.56,0,0,1-1.52-.14,6.28,6.28,0,0,1-2.71-1.31,4.74,4.74,0,0,1-.94-1,4.79,4.79,0,0,1-.58-1.1,7.57,7.57,0,0,1-.28-1,3.07,3.07,0,0,0-.26-0.7A1.28,1.28,0,0,0,300.39,183.45Z" transform="translate(-262.84 -105.18)"/><path class="cls-1" d="M327.29,187.71l0.22,1a7.65,7.65,0,0,0,.92,2.33,4.27,4.27,0,0,0,.49.62,4.43,4.43,0,0,0,.63.53,5.85,5.85,0,0,0,1.63.76,9,9,0,0,0,1.93.34,13.32,13.32,0,0,0,2.05,0,16,16,0,0,0,7.15-2.42c0.44-.28.84-0.56,1.18-0.82s0.63-.5.86-0.7l0.72-.66-0.15.2c-0.11.13-.24,0.34-0.45,0.57s-0.46.52-.78,0.82a9.6,9.6,0,0,1-1.11,1,13.54,13.54,0,0,1-1.45,1,13.06,13.06,0,0,1-1.75.88,14.05,14.05,0,0,1-2,.65,14.42,14.42,0,0,1-2.15.36,14.06,14.06,0,0,1-2.18,0,8.7,8.7,0,0,1-2.09-.44,5.61,5.61,0,0,1-1.77-1,4.9,4.9,0,0,1-.68-0.67,4.76,4.76,0,0,1-.48-0.72,6.89,6.89,0,0,1-.68-2.53C327.29,188.07,327.29,187.71,327.29,187.71Z" transform="translate(-262.84 -105.18)"/><path class="cls-1" d="M447.13,164a9.81,9.81,0,0,1,.25,2.22,8.37,8.37,0,0,1,0,1.09,7.87,7.87,0,0,1-.22,1.23,6.11,6.11,0,0,1-1.31,2.51,7.58,7.58,0,0,1-2.22,1.64c-0.74.38-1.41,0.7-2,1a15.27,15.27,0,0,1-2.09.74,15.27,15.27,0,0,1,1.59-1.54c0.49-.43,1.1-0.9,1.74-1.38a8,8,0,0,0,3.64-5.38c0.18-.61.35-1.14,0.47-1.51S447.13,164,447.13,164Z" transform="translate(-262.84 -105.18)"/><path class="cls-1" d="M286.78,178.06c-0.35.49-.68,1-1,1.49s-0.73,1-1.13,1.43a31.41,31.41,0,0,1-2.5,2.66c-0.43.43-.9,0.83-1.36,1.23s-0.95.77-1.42,1.16a33,33,0,0,1-3,2.07c-0.53.3-1.05,0.63-1.6,0.9s-1.08.57-1.65,0.82a31.58,31.58,0,0,1-3.42,1.37c-0.58.22-1.17,0.36-1.76,0.54s-1.19.3-1.79,0.45a4.78,4.78,0,0,0-1.5.57,1.44,1.44,0,0,0-.46.43,0.49,0.49,0,0,0-.06.41l-0.44-.44,14.51,3.5c4.84,1.17,9.68,2.33,14.5,3.57s9.64,2.42,14.48,3.51a123.76,123.76,0,0,0,14.67,2.44,141.6,141.6,0,0,0,14.88.64c5,0,9.95-.19,14.92-0.28s10-.19,15,0c2.49,0.11,5,.29,7.47.56s5,0.63,7.43,1c4.93,0.83,9.81,1.88,14.66,3,2.43,0.56,4.83,1.23,7.22,1.54a17.07,17.07,0,0,0,3.55.12,12.12,12.12,0,0,0,1.72-.27,8.52,8.52,0,0,0,.83-0.25,7.89,7.89,0,0,0,.74-0.33c2-1,3.65-2.91,5.57-4.6a16.52,16.52,0,0,1,1.54-1.23l1.55-1c1-.71,2.12-1.35,3.21-2a99.28,99.28,0,0,1,13.65-6.35c4.65-1.83,9.36-3.44,14-5.24a92,92,0,0,0,13.4-6.29l1.59-.93,1.53-1,1.52-1a1.25,1.25,0,0,0,.23-0.22l0-.07s0-.05,0,0v-0.11a0.66,0.66,0,0,0-.26-0.26,2.4,2.4,0,0,0-.71-0.27l-0.91-.2-1.82-.38q-1.82-.36-3.66-0.67a127.64,127.64,0,0,0-14.8-1.67v-0.17a123,123,0,0,1,14.91,1.06q1.85,0.26,3.7.57l1.85,0.33,0.92,0.17a3.36,3.36,0,0,1,1,.37A1.37,1.37,0,0,1,469,182v0.13a1.07,1.07,0,0,1-.05.23,1.34,1.34,0,0,1-.17.34,2.21,2.21,0,0,1-.43.44l-1.54,1.11-1.54,1.09-1.6,1A92,92,0,0,1,450.2,193c-4.62,1.9-9.31,3.6-13.92,5.41a97.73,97.73,0,0,0-13.37,6.28c-1,.62-2.1,1.22-3.12,2l-1.54,1a15.53,15.53,0,0,0-1.39,1.08c-1.83,1.55-3.51,3.55-6,4.78a13.72,13.72,0,0,1-7.79.81c-2.55-.36-5-1.06-7.36-1.64-4.82-1.2-9.64-2.39-14.52-3.3-2.43-.46-4.88-0.87-7.33-1.19s-4.93-.55-7.4-0.71c-4.95-.33-9.92-0.41-14.9-0.35l-14.93.22c-5,.07-10-0.05-15-0.41a123.18,123.18,0,0,1-14.84-2c-4.91-.92-9.75-2.11-14.59-3.29s-9.66-2.4-14.48-3.62l-14.47-3.68-0.34-.09-0.1-.35a1.7,1.7,0,0,1,.23-1.33,2.57,2.57,0,0,1,.85-0.79,5.87,5.87,0,0,1,1.89-.67c0.58-.13,1.17-0.24,1.74-0.39s1.16-.29,1.72-0.48a30.63,30.63,0,0,0,3.35-1.24c0.55-.22,1.09-0.49,1.63-0.75s1.06-.56,1.58-0.84l1.54-.91c0.5-.33,1-0.65,1.49-1s1-.69,1.44-1.08,0.94-.74,1.38-1.15a31,31,0,0,0,2.58-2.52c0.42-.43.79-0.9,1.19-1.35s0.75-1,1.12-1.42Z" transform="translate(-262.84 -105.18)"/><path class="cls-1" d="M282.22,198.09l-0.39.46a7.53,7.53,0,0,0-1,1.44,9.73,9.73,0,0,0-.91,2.62,11.6,11.6,0,0,0,0,3.74,14,14,0,0,0,1.45,4.39,12.89,12.89,0,0,0,1.47,2.16,13.37,13.37,0,0,0,.95,1c0.35,0.33.68,0.64,1.06,0.95,3,2.49,7.25,4.17,12,5.29a129.11,129.11,0,0,0,15.67,2.51c5.62,0.54,11.58.94,17.76,1.1s12.57,0.19,19.07.08l9.8-.31,9.88-.48L388.7,222c6.49-.33,12.87-0.67,19-1.13s12.11-1,17.74-1.55c2.81-.29,5.55-0.63,8.18-1a53,53,0,0,0,7.47-1.46c4.68-1.26,8.69-3.53,10.95-6.7a12.27,12.27,0,0,0,2.08-9.55,13.09,13.09,0,0,0-2.68-5.94,11.1,11.1,0,0,0-1.2-1.26l-0.45-.4,0.1-.13,0.48,0.38a11.34,11.34,0,0,1,1.3,1.22,13.54,13.54,0,0,1,3.1,6,13.4,13.4,0,0,1,.24,4.89,12.63,12.63,0,0,1-.69,2.74l-0.27.66L454,209l0,0.1,0,0.08-0.18.33a10.9,10.9,0,0,1-.78,1.33,15.83,15.83,0,0,1-4.77,4.56,27,27,0,0,1-6.65,2.92c-4.84,1.49-10.23,2.07-15.86,2.76s-11.63,1.17-17.81,1.55-12.58.65-19.08,0.88-13.1.38-19.7,0.51l-19.7.4c-6.5.15-12.9,0.24-19.09,0.3s-12.2,0-17.88-.58c-2.84-.26-5.6-0.57-8.25-1s-5.19-1-7.62-1.58c-4.83-1.2-9.27-3-12.38-5.78a14.73,14.73,0,0,1-3.57-4.55,13.69,13.69,0,0,1-1.34-4.71,12.19,12.19,0,0,1,.24-3.93,9.77,9.77,0,0,1,1.1-2.68,7.83,7.83,0,0,1,1.1-1.42l0.42-.43Z" transform="translate(-262.84 -105.18)"/><path class="cls-1" d="M282.58,201.37l-0.21.91a12.32,12.32,0,0,0-.16,2.6,11.34,11.34,0,0,0,.9,3.9,11.52,11.52,0,0,0,2.95,4.15,14.64,14.64,0,0,0,5.37,2.75c2.11,0.7,4.34,1.29,6.7,1.82a63.19,63.19,0,0,0,14.95,1.39c2.57-.06,5.16-0.28,7.77-0.26a38.82,38.82,0,0,1,7.58.89c2.4,0.47,4.68,1,6.87,1.27s4.28,0.55,6.21.68a89.83,89.83,0,0,0,9.37.19c2.27-.08,3.57-0.17,3.57-0.17l-0.92.15c-0.6.09-1.49,0.23-2.62,0.35a70.59,70.59,0,0,1-9.44.42c-2-.05-4.08-0.18-6.32-0.41s-4.59-.6-7-1a41,41,0,0,0-7.32-.73c-2.51,0-5.09.23-7.71,0.31a61.71,61.71,0,0,1-7.84-.33,58.32,58.32,0,0,1-7.48-1.3,56,56,0,0,1-6.77-2.1,15.66,15.66,0,0,1-5.6-3.2,11.29,11.29,0,0,1-2.89-4.61,11.8,11.8,0,0,1-.64-4.11,10.91,10.91,0,0,1,.4-2.63Z" transform="translate(-262.84 -105.18)"/><path class="cls-1" d="M418,218.28l0.36-.12c0.23-.08.58-0.19,1-0.3a26,26,0,0,1,3.77-.65c1.57-.18,3.41-0.27,5.33-0.41,1-.06,1.94-0.18,3-0.3s2-.3,3-0.5,2-.42,3-0.69,1.92-.54,2.83-0.86a49.46,49.46,0,0,0,4.88-2c0.7-.33,1.35-0.64,1.89-0.93a4.85,4.85,0,0,0,1.25-.94,1.94,1.94,0,0,0,.47-0.88,1.85,1.85,0,0,0,0-.37,1.88,1.88,0,0,1,.05.38,2,2,0,0,1-.29,1.07,4.64,4.64,0,0,1-1.16,1.28c-0.53.4-1.11,0.81-1.79,1.24a29.84,29.84,0,0,1-4.83,2.49,33.5,33.5,0,0,1-6,1.81c-1.05.19-2.1,0.35-3.16,0.46s-2.07.14-3.06,0.16c-2,0-3.8-.06-5.35-0.1s-2.85,0-3.76,0S418,218.28,418,218.28Z" transform="translate(-262.84 -105.18)"/><path class="cls-1" d="M440.65,207.56a2.73,2.73,0,0,0,1.22-.58,2.09,2.09,0,0,0,.64-0.89c0-.13.09-0.38,0.21-0.71a2.19,2.19,0,0,1,.28-0.56,1.38,1.38,0,0,1,.15-0.18l0.08-.08a2.26,2.26,0,0,1,.3-0.24,3,3,0,0,1,1.06-.38c0.3-.06.56-0.08,0.75-0.12a1.49,1.49,0,0,0,.38-0.1l0,0h0l0,0h0v0l0,0c0.05-.08,0,0,0,0a0.26,0.26,0,0,0,.07-0.13,0.84,0.84,0,0,0-.23-0.71,0.71,0.71,0,0,0-.33-0.2,0.75,0.75,0,0,1,.45-0.11,1.24,1.24,0,0,1,1,.83,1.35,1.35,0,0,1,.08.53,1.86,1.86,0,0,1-.07.31v0.07h0l0,0.05v0l-0.07.13a1.9,1.9,0,0,1-.89.75,6.6,6.6,0,0,1-.86.29,2.3,2.3,0,0,0-.54.21s0-.05,0,0l-0.08.07,0,0a0.92,0.92,0,0,0-.12.19,5.72,5.72,0,0,1-.42.83,2.52,2.52,0,0,1-1.53,1,2.09,2.09,0,0,1-1.21-.07A1.76,1.76,0,0,1,440.65,207.56Z" transform="translate(-262.84 -105.18)"/><path class="cls-1" d="M432.21,206.53a0.75,0.75,0,0,0,.38.14,1.46,1.46,0,0,0,.85-0.22,1.61,1.61,0,0,0,.23-0.16l0.24-.19c0.16-.14.35-0.33,0.59-0.52a3.13,3.13,0,0,1,.93-0.53,2.72,2.72,0,0,1,1.2-.12,6.23,6.23,0,0,1,.95.2c0.28,0.07.48,0.14,0.72,0.17a4.48,4.48,0,0,0,.65.07c0.22,0,.43,0,0.63,0a6.26,6.26,0,0,0,1-.2L441,205a2.09,2.09,0,0,1-.22.39,2.91,2.91,0,0,1-.88.82,3.51,3.51,0,0,1-1.7.53,4.37,4.37,0,0,1-1-.07c-0.3,0-.57-0.11-0.79-0.13a1.68,1.68,0,0,0-.55,0,2.86,2.86,0,0,0-.61.23c-0.23.11-.48,0.23-0.76,0.35l-0.19.07-0.23.07a2.65,2.65,0,0,1-.43.06,1.57,1.57,0,0,1-1.24-.41A0.8,0.8,0,0,1,432.21,206.53Z" transform="translate(-262.84 -105.18)"/><path class="cls-1" d="M429.58,210.21a2.35,2.35,0,0,0,1.06.5,2.1,2.1,0,0,0,.46,0l0.22,0a0.37,0.37,0,0,1,.13,0l0.09,0c0.31-.11.71-0.33,1.25-0.53a3.27,3.27,0,0,1,.93-0.19,3.31,3.31,0,0,1,.45,0l0.4,0.06c0.51,0.11.9,0.25,1.22,0.35a2.24,2.24,0,0,0,.8.12,1.25,1.25,0,0,0,.36-0.07,1.16,1.16,0,0,1-.19.35,1.73,1.73,0,0,1-1,.54,7.34,7.34,0,0,1-1.35.16l-0.31,0-0.28,0a3.41,3.41,0,0,0-.53.15,6.12,6.12,0,0,1-1.55.41h-0.26l-0.21,0a2.3,2.3,0,0,1-.45-0.11,1.92,1.92,0,0,1-.68-0.4,1.77,1.77,0,0,1-.57-0.93A1.39,1.39,0,0,1,429.58,210.21Z" transform="translate(-262.84 -105.18)"/><path class="cls-1" d="M343.51,216.83a14.32,14.32,0,0,1-1.71-.35l0.4-.72a3.89,3.89,0,0,0,1.21.26,3.79,3.79,0,0,0,1.15-.13,9.85,9.85,0,0,1,1.45-.36,2.61,2.61,0,0,1,1,.08,2.76,2.76,0,0,1,.86.46l0.24,0.18,0.12,0.08,0.08,0a2,2,0,0,0,.48.18,3.43,3.43,0,0,0,1.16.07l0.32,0,0.31-.06c0.22,0,.43-0.11.66-0.17,0.45-.13.91-0.29,1.39-0.42a7.28,7.28,0,0,1-1,1.06,4.74,4.74,0,0,1-.63.44l-0.35.2a2.64,2.64,0,0,1-.36.16,3.87,3.87,0,0,1-1.67.25,3.37,3.37,0,0,1-.89-0.2l-0.24-.11-0.19-.1L347,217.4a1.27,1.27,0,0,0-.39-0.21,1.15,1.15,0,0,0-.39,0c-0.34,0-.79.15-1.33,0.23a3.9,3.9,0,0,1-3.1-.93l0.4-.72A14.32,14.32,0,0,1,343.51,216.83Z" transform="translate(-262.84 -105.18)"/><path class="cls-1" d="M299.27,210.11a2.64,2.64,0,0,0,0,1,2.49,2.49,0,0,0,.29.71,1.42,1.42,0,0,0,.44.45,0.76,0.76,0,0,0,.14.07l0.09,0a1.66,1.66,0,0,0,.32.06,2,2,0,0,0,.72-0.09,1.48,1.48,0,0,0,.55-0.32,1.58,1.58,0,0,0,.21-0.22l0,0.08a0.75,0.75,0,0,1,.07.24,1.31,1.31,0,0,1-.2.91,2,2,0,0,1-1.09.84,2.09,2.09,0,0,1-.84.09,1.85,1.85,0,0,1-.49-0.11,2.06,2.06,0,0,1-.4-0.19,2.15,2.15,0,0,1-.77-2.73,1.62,1.62,0,0,1,.59-0.68,0.81,0.81,0,0,1,.22-0.1Z" transform="translate(-262.84 -105.18)"/><path class="cls-1" d="M306.15,211.66a1.05,1.05,0,0,0-.21.25,1.15,1.15,0,0,0-.15.65,1,1,0,0,0,.26.66l0,0s0,0,0,0l0,0a0.37,0.37,0,0,0,.09.09l0.13,0.09a1.94,1.94,0,0,0,.37.19,4.72,4.72,0,0,0,2,.22,10.15,10.15,0,0,0,1.16-.16,1.77,1.77,0,0,1-.15.33,2.45,2.45,0,0,1-.63.71,3.07,3.07,0,0,1-1.25.58,3,3,0,0,1-1.69-.13,2.58,2.58,0,0,1-.8-0.5,2,2,0,0,1-.33-0.39,1.2,1.2,0,0,1-.1-0.17l0,0a0.46,0.46,0,0,1,0-.09l-0.05-.12a1.83,1.83,0,0,1,.17-1.62,1.28,1.28,0,0,1,.87-0.61A0.86,0.86,0,0,1,306.15,211.66Z" transform="translate(-262.84 -105.18)"/><path class="cls-1" d="M315.05,210.85l0.28,0c0.18,0,.39,0,0.63,0a13.26,13.26,0,0,1,1.62.06,12.73,12.73,0,0,1,1.6.26,8.39,8.39,0,0,1,.88.24,2.06,2.06,0,0,1-.68.69,3.13,3.13,0,0,1-3.8-.37,2,2,0,0,1-.43-0.55A2.59,2.59,0,0,1,315.05,210.85Z" transform="translate(-262.84 -105.18)"/><path class="cls-1" d="M367.9,215.11a0.41,0.41,0,0,0,.3.11,2.06,2.06,0,0,0,.71-0.28,3.5,3.5,0,0,1,.56-0.27,3.58,3.58,0,0,1,.79-0.18,6.08,6.08,0,0,1,1.57.06l1.33,0.24a7.13,7.13,0,0,0,1.1.12,3.21,3.21,0,0,0,.83-0.09,2.34,2.34,0,0,0,.35-0.11,1.58,1.58,0,0,1-.14.36,2,2,0,0,1-.75.74,3.42,3.42,0,0,1-1.41.44,4.66,4.66,0,0,1-.8,0c-0.26,0-.51-0.05-0.76-0.09l-1.32-.23-0.55-.08h-0.62a1.54,1.54,0,0,1-1-.36,0.5,0.5,0,0,1-.14-0.3v-0.1Z" transform="translate(-262.84 -105.18)"/><path class="cls-1" d="M280,210.06a6,6,0,0,1-2.2,4.29,13.84,13.84,0,0,1-4.28,2.4,29.74,29.74,0,0,0-4.38,1.94,4.48,4.48,0,0,0-1.61,1.49,2.42,2.42,0,0,0-.16,2,3.55,3.55,0,0,0,1.25,1.7,4.23,4.23,0,0,0,2,.73,9.74,9.74,0,0,0,4.5-.83,10.51,10.51,0,0,1,2.48-.63,4.58,4.58,0,0,1,2.71.55,3.21,3.21,0,0,1,1.08,1l0.1,0.17a1.08,1.08,0,0,1,.06.13l0,0.07,0.11,0.28a4.15,4.15,0,0,1,.16.75,15.12,15.12,0,0,1,0,2.53,2.12,2.12,0,0,0,.44,1.75l0.07,0.07h0l0,0,0,0,0.06,0a0.59,0.59,0,0,0,.2.11,1,1,0,0,0,.34.07,1.94,1.94,0,0,0,.87-0.19,5.91,5.91,0,0,0,1.74-1.27,9.47,9.47,0,0,1,2-1.67,4.12,4.12,0,0,1,1.36-.53,2.58,2.58,0,0,1,1.61.23l0.18,0.1,0,0,0.05,0,0.06,0a3,3,0,0,1,.32.26,5.7,5.7,0,0,1,.47.52,3.21,3.21,0,0,0,.71.73,2.53,2.53,0,0,0,1.8.19c0.68-.12,1.42-0.45,2.25-0.69a4.34,4.34,0,0,1,2.85,0,3.09,3.09,0,0,1,1.29.9A2.3,2.3,0,0,1,301,231a3.43,3.43,0,0,1-.51,1.46,7.65,7.65,0,0,0-.52,1,1.63,1.63,0,0,0-.06.2l0,0.23a1,1,0,0,1,0,.14l0,0.19a1.68,1.68,0,0,0,.43.72,2.54,2.54,0,0,0,1.68.76,4,4,0,0,0,2-.55,12.14,12.14,0,0,0,1.87-1.32,3.89,3.89,0,0,0,1.36-1.51l0.48,0.84a0.83,0.83,0,0,1-.44-0.25,0.78,0.78,0,0,1-.21-0.53,1.08,1.08,0,0,1,.15-0.53,2.39,2.39,0,0,1,.37-0.49,3.22,3.22,0,0,1,.43-0.38,2.08,2.08,0,0,1,.28-0.17l0.09,0,0.08,0h0l0.11,0a2.3,2.3,0,0,1,2.24.78,4.55,4.55,0,0,1,1,1.79,7.09,7.09,0,0,0,.65,1.54,2.09,2.09,0,0,0,.22.28l0.06,0.06s0,0,0,0l0,0,0.18,0.14a2.1,2.1,0,0,0,.61.26,3.11,3.11,0,0,0,1.53-.08,5.22,5.22,0,0,0,1.49-.7c0.49-.34.93-0.7,1.41-1.09a7,7,0,0,1,3.39-1.8,1.91,1.91,0,0,1,.58,0,1.46,1.46,0,0,1,.3.1l0.25,0.14a2.42,2.42,0,0,1,.71.82l0.43,0.8,0.05,0.09,0.05,0.07,0.14,0.18a3.39,3.39,0,0,0,.26.26,3.06,3.06,0,0,0,3.07.44,2.57,2.57,0,0,0,1.21-1.05,7.91,7.91,0,0,1,1.09-1.54,1.72,1.72,0,0,1,2-.27,3.21,3.21,0,0,1,1.32,1.46,10.89,10.89,0,0,0,.83,1.56,3.56,3.56,0,0,0,.57.62,4.19,4.19,0,0,0,.7.47,5.8,5.8,0,0,0,3.39.48,8.5,8.5,0,0,0,3.3-1.21c2.07-1.18,3.91-2.85,6.26-3.76a4.81,4.81,0,0,1,1.89-.34,2.68,2.68,0,0,1,1.83.79,2.06,2.06,0,0,1,.61,2,2.73,2.73,0,0,1-1.28,1.53c-0.53.35-1.1,0.59-1.52,0.93a1.81,1.81,0,0,0-.79,1.23,1.32,1.32,0,0,0,.81,1.09,4.89,4.89,0,0,0,1.57.58,5,5,0,0,0,3.27-.47,26,26,0,0,1,3.18-1.87,3.77,3.77,0,0,1,2.06-.18,2.65,2.65,0,0,1,1,.47,3.42,3.42,0,0,1,.72.79,16.87,16.87,0,0,0,1,1.5,4.67,4.67,0,0,0,1.23,1,4.88,4.88,0,0,0,6-.75c0.82-.79,1.52-1.8,2.55-2.66a5.76,5.76,0,0,1,1.77-1,3.69,3.69,0,0,1,2.18-.1,6.91,6.91,0,0,1,1.82.86l0.76,0.46,0.77,0.38a8.61,8.61,0,0,0,3.22.64,8.87,8.87,0,0,0,6.1-2.32,10.88,10.88,0,0,0,2-2.75,10.53,10.53,0,0,1,2.38-3.1l-0.26.36a2.31,2.31,0,0,1,.72-1,2.51,2.51,0,0,1,1.07-.49,4,4,0,0,1,2,.17l0.45,0.18,0.24,0.11,0.17,0.1a6,6,0,0,1,.78.55,11.18,11.18,0,0,1,1.22,1.22c0.36,0.41.69,0.8,1,1.15a5.22,5.22,0,0,0,1.07.83,1.85,1.85,0,0,0,2.1,0,11.46,11.46,0,0,0,1.92-2.2,4.49,4.49,0,0,1,3.27-1.91,7.23,7.23,0,0,1,3.47.92,24.47,24.47,0,0,0,2.8,1.31,6.06,6.06,0,0,0,2.77.39,3.61,3.61,0,0,0,2.21-1.14,2.35,2.35,0,0,0,.53-1.06,4,4,0,0,1,.31-1,2.12,2.12,0,0,1,.93-0.91,2.82,2.82,0,0,1,2.23-.07,5.61,5.61,0,0,1,1.57,1,12.74,12.74,0,0,0,1.19.92,5.45,5.45,0,0,0,1.23.62,2.58,2.58,0,0,0,2.33-.21,1.57,1.57,0,0,0,.65-0.81,7.39,7.39,0,0,0,.11-1.42,2.37,2.37,0,0,1,0-.29l0-.19a3.82,3.82,0,0,1,.17-0.52,3.63,3.63,0,0,1,.54-0.87,4.51,4.51,0,0,1,1.53-1.15,5.5,5.5,0,0,1,1.79-.48h0.9a7.81,7.81,0,0,1,.88.1,22.54,22.54,0,0,1,3.17.91,21.43,21.43,0,0,0,6.07,1,23.15,23.15,0,0,0,11.92-3,21.23,21.23,0,0,0,4.91-3.82,6.59,6.59,0,0,0,1.7-2.45,2.16,2.16,0,0,0-.67-2.45c-0.74-.5-1.85,0-2.92,0a9.05,9.05,0,0,1-8.22-4.36l0.14-.09a8.69,8.69,0,0,0,8,3.91c0.53-.06,1-0.17,1.57-0.27a2.57,2.57,0,0,1,1.76.23,2.84,2.84,0,0,1,1.07,3.23,7.31,7.31,0,0,1-1.81,2.81,22.16,22.16,0,0,1-5,4.12,23.73,23.73,0,0,1-12.46,3.42,22.87,22.87,0,0,1-6.48-1c-2-.65-4-1.34-5.65-0.5a2.29,2.29,0,0,0-1.41,1.79,7.25,7.25,0,0,1-.15,1.75,3.17,3.17,0,0,1-1.26,1.68,4,4,0,0,1-1.88.69,4.64,4.64,0,0,1-1.9-.25,9.19,9.19,0,0,1-3-1.83,4,4,0,0,0-1.11-.72,1.18,1.18,0,0,0-.87,0,0.41,0.41,0,0,0-.19.19,2.67,2.67,0,0,0-.16.57,4.07,4.07,0,0,1-.88,1.77,5.26,5.26,0,0,1-3.33,1.74,7.79,7.79,0,0,1-3.5-.46,25.64,25.64,0,0,1-3-1.38,5.66,5.66,0,0,0-2.62-.74c-0.1,0-.19,0-0.29,0s-0.12,0-.24.06l-0.19.07,0,0h0l-0.06,0a1.6,1.6,0,0,0-.25.14,4.46,4.46,0,0,0-1,.92,11.66,11.66,0,0,1-2.3,2.55,3.43,3.43,0,0,1-2,.6,4.09,4.09,0,0,1-1.91-.58,6.89,6.89,0,0,1-1.44-1.13c-0.4-.41-0.75-0.83-1.09-1.22a9.61,9.61,0,0,0-1-1,4.5,4.5,0,0,0-.52-0.38l-0.17-.1-0.12-.06-0.29-.12a2.34,2.34,0,0,0-1.14-.13,0.68,0.68,0,0,0-.57.43l-0.1.24-0.16.12a9.09,9.09,0,0,0-2,2.63,12.4,12.4,0,0,1-2.3,3.08,10.39,10.39,0,0,1-7.18,2.68,9.57,9.57,0,0,1-3.85-.84c-1.18-.51-2.15-1.42-3.07-1.67a3.12,3.12,0,0,0-2.77.81c-0.86.67-1.58,1.66-2.52,2.54a5.78,5.78,0,0,1-3.58,1.68,6.31,6.31,0,0,1-3.83-.88,5.68,5.68,0,0,1-1.52-1.33,17.05,17.05,0,0,1-1-1.56,1.81,1.81,0,0,0-1.1-.87,2.82,2.82,0,0,0-1.52.12,29.08,29.08,0,0,0-3.1,1.76,5.87,5.87,0,0,1-3.81.47,5.71,5.71,0,0,1-1.81-.71,2.84,2.84,0,0,1-.78-0.69,1.66,1.66,0,0,1-.35-1.08,2.47,2.47,0,0,1,1.09-1.75,18.32,18.32,0,0,1,1.6-.94,2.07,2.07,0,0,0,1-1.16,1.47,1.47,0,0,0-.45-1.35,2.08,2.08,0,0,0-1.43-.62,4.25,4.25,0,0,0-1.66.29c-2.21.83-4.07,2.46-6.2,3.67a9.41,9.41,0,0,1-3.49,1.25,6.32,6.32,0,0,1-3.7-.5A4.73,4.73,0,0,1,334,236a4.2,4.2,0,0,1-.66-0.7,11,11,0,0,1-.9-1.63,2.63,2.63,0,0,0-1.08-1.19,1.09,1.09,0,0,0-1.33.19,7.73,7.73,0,0,0-1,1.44,3.24,3.24,0,0,1-1.48,1.31,3.78,3.78,0,0,1-3.8-.48,5.05,5.05,0,0,1-1.13-1.56,1.05,1.05,0,0,0-1.09-.66,6.39,6.39,0,0,0-2.88,1.68c-0.45.39-.93,0.81-1.43,1.17a6.19,6.19,0,0,1-1.77.89,4.14,4.14,0,0,1-2.06.14,3,3,0,0,1-1-.45l-0.18-.14,0,0-0.08-.07-0.1-.1a3.19,3.19,0,0,1-.35-0.42c-0.8-1.2-.86-2.48-1.59-3.12a1.15,1.15,0,0,0-1-.43l-0.11,0h0l-0.1.07a2,2,0,0,0-.25.23,1.17,1.17,0,0,0-.17.23,0.79,0.79,0,1,1,0-.1,0.5,0.5,0,0,0-.13-0.33,0.43,0.43,0,0,0-.25-0.14l0.48,0.84a5,5,0,0,1-1.73,2.15,13.2,13.2,0,0,1-2.08,1.48,6.4,6.4,0,0,1-1.25.53,4.84,4.84,0,0,1-.7.16l-0.32,0H302a3.93,3.93,0,0,1-2.65-1.17,3.09,3.09,0,0,1-.79-1.35c0-.13-0.05-0.27-0.08-0.41a4.34,4.34,0,0,1,0-.47l0-.15v-0.11a0.62,0.62,0,0,1,0-.1,3.05,3.05,0,0,1,.11-0.38,8.5,8.5,0,0,1,.6-1.18,2.28,2.28,0,0,0,.32-0.8,0.8,0.8,0,0,0-.21-0.63,1.64,1.64,0,0,0-.69-0.46,3.06,3.06,0,0,0-1.92.06c-0.72.19-1.48,0.53-2.4,0.7a3.87,3.87,0,0,1-2.89-.46,4.57,4.57,0,0,1-1-1,4.41,4.41,0,0,0-.34-0.39l-0.14-.13-0.06,0h0l-0.08,0a1.7,1.7,0,0,0-1.64.24,8.15,8.15,0,0,0-1.72,1.44,7.19,7.19,0,0,1-2.18,1.55,3.24,3.24,0,0,1-1.48.28,2.21,2.21,0,0,1-.83-0.21,1.77,1.77,0,0,1-.33-0.18l-0.06,0,0,0-0.06,0,0,0-0.15-.14a2.6,2.6,0,0,1-.76-1.39,5.78,5.78,0,0,1-.07-1.37,14.73,14.73,0,0,0,.08-2.32,4,4,0,0,0-.08-0.44l-0.11-.28,0-.07c0,0.06,0,0,0,0l-0.05-.1a2,2,0,0,0-.65-0.63,3.43,3.43,0,0,0-2-.44,9.44,9.44,0,0,0-2.22.51,10.73,10.73,0,0,1-5,.77,5.19,5.19,0,0,1-2.47-1,4.46,4.46,0,0,1-1.52-2.19,3.54,3.54,0,0,1-.15-1.37,3.16,3.16,0,0,1,.43-1.32,5.1,5.1,0,0,1,1.95-1.73,30.26,30.26,0,0,1,4.55-1.82A13.37,13.37,0,0,0,277.5,214a5.75,5.75,0,0,0,2.29-4H280Z" transform="translate(-262.84 -105.18)"/><path class="cls-1" d="M361,234.34a1.39,1.39,0,0,0,.33-0.62,2.75,2.75,0,0,0,.08-0.81,2.49,2.49,0,0,0-.21-1,4.09,4.09,0,0,0-1.65-1.78,1.7,1.7,0,0,0-1-.28,0.71,0.71,0,0,0-.46.46,1.3,1.3,0,0,0-.18.48l-0.13.68c-0.07.47-.14,1-0.18,1.4a2.23,2.23,0,0,0,.06,1.11,1.84,1.84,0,0,0,.89.61,2.94,2.94,0,0,0,1.81.1A1.39,1.39,0,0,0,361,234.34Zm0,0-0.14.13a1.84,1.84,0,0,1-.46.26,4.25,4.25,0,0,1-1.9.22,2.67,2.67,0,0,1-1.35-.46,1,1,0,0,1-.31-0.36,2.85,2.85,0,0,1-.18-0.4,5.28,5.28,0,0,1-.21-0.77,7.81,7.81,0,0,1-.16-1.59,5.18,5.18,0,0,1,0-.85,2.61,2.61,0,0,1,.31-1,1.82,1.82,0,0,1,.29-0.45,1.65,1.65,0,0,1,.43-0.41,1.75,1.75,0,0,1,1.2-.34,2.63,2.63,0,0,1,1.71.89,5.18,5.18,0,0,1,1.25,2.59,3.78,3.78,0,0,1,0,1.1,4.86,4.86,0,0,1-.19.8A1.54,1.54,0,0,1,361,234.34Z" transform="translate(-262.84 -105.18)"/><path class="cls-1" d="M365,233.59a1.47,1.47,0,0,0-.35.16,1.54,1.54,0,0,0-.55.61,1.33,1.33,0,0,0-.12.42,0.89,0.89,0,0,0,.07.4s0.12,0.18.21,0.25a1.14,1.14,0,0,0,.34.21,1.17,1.17,0,0,0,.29.06,0.85,0.85,0,0,0,.35-0.12,0.92,0.92,0,0,0,.27-0.24l0-.07s0-.05,0,0v-0.08a0.26,0.26,0,0,0,0-.15,1,1,0,0,0-.31-0.67,0.81,0.81,0,0,0-.32-0.19,0.81,0.81,0,0,1,.41-0.12,1.28,1.28,0,0,1,1.08.61,1.41,1.41,0,0,1,.2.45l0,0.08v0.16a1.63,1.63,0,0,1,0,.26,1.83,1.83,0,0,1-.43,1,2,2,0,0,1-1,.64,2.09,2.09,0,0,1-1.28-.07,2.34,2.34,0,0,1-1-.7,2.09,2.09,0,0,1-.46-1.13,1.85,1.85,0,0,1,.24-1,1.76,1.76,0,0,1,.61-0.64,1.56,1.56,0,0,1,1.16-.25A1.13,1.13,0,0,1,365,233.59Z" transform="translate(-262.84 -105.18)"/><path class="cls-1" d="M442.39,222.86a3.85,3.85,0,0,0,2.19-.18c0.7-.23,1.4-0.55,2.17-0.79a7.08,7.08,0,0,1,1.24-.26,4.9,4.9,0,0,1,1.31.05l1.14,0.2,0.26,0,0.24,0a3.71,3.71,0,0,0,.52,0,8.18,8.18,0,0,0,2-.26,15.78,15.78,0,0,0,2-.7c0.34-.14.68-0.29,1-0.45l1-.47a3.08,3.08,0,0,0,.78-0.52,0.55,0.55,0,0,0,.24-0.54l0.11,0.13a2.21,2.21,0,0,0-2.3-.44,2.18,2.18,0,0,1,1.3-.56,2.49,2.49,0,0,1,1.5.35l0,0,0.07,0.11a1.23,1.23,0,0,1,.17.86,1.88,1.88,0,0,1-.3.73,3.5,3.5,0,0,1-1,.94c-0.35.23-.65,0.44-1,0.64s-0.69.39-1,.58a11.24,11.24,0,0,1-2.27.9,7.5,7.5,0,0,1-2.53.3,5.35,5.35,0,0,1-.63-0.06l-0.14,0-0.18,0-0.31-.07-1.11-.3a4.81,4.81,0,0,0-1-.15,5.79,5.79,0,0,0-1,.07c-0.72.1-1.49,0.28-2.3,0.34a4.58,4.58,0,0,1-1.22-.05A2.81,2.81,0,0,1,442.39,222.86Z" transform="translate(-262.84 -105.18)"/><path class="cls-1" d="M311,228.44a7.26,7.26,0,0,1,.6.68,3.87,3.87,0,0,0,.73.72,2.52,2.52,0,0,0,1.19.47,2.66,2.66,0,0,0,1.43-.21,1.33,1.33,0,0,0,.88-0.89,1.26,1.26,0,0,0-.61-0.9,3.72,3.72,0,0,0-1.47-.39,6.63,6.63,0,0,1-2.08-.52c-0.65-.3-1.15-0.63-1.61-0.79a1.58,1.58,0,0,0-1.31,0,4.85,4.85,0,0,0-.6.5,1.2,1.2,0,0,0-.18.25,0.26,0.26,0,0,1,0,.1s0,0.05,0,.09a2.08,2.08,0,0,0,1.14.44c0.39,0.08.74,0.11,1,.16a3.17,3.17,0,0,1,.65.15A1.34,1.34,0,0,1,311,228.44Zm0,0a1.33,1.33,0,0,0-.21-0.11,2.63,2.63,0,0,0-.65-0.13c-0.29,0-.64,0-1-0.05a5.55,5.55,0,0,1-.65-0.06,1.42,1.42,0,0,1-.74-0.28,0.89,0.89,0,0,1-.14-0.24,1.88,1.88,0,0,1,0-.28,1.59,1.59,0,0,1,.18-0.45,5.2,5.2,0,0,1,.51-0.72,2.4,2.4,0,0,1,2-.67,9.31,9.31,0,0,1,1.95.53,10,10,0,0,0,1.75.3,4,4,0,0,1,2.2.86,2.29,2.29,0,0,1,.78,2.42,1.75,1.75,0,0,1-.84.92,3.27,3.27,0,0,1-1,.32,3.58,3.58,0,0,1-1.72-.15,3.34,3.34,0,0,1-1.2-.71,6.23,6.23,0,0,1-.67-0.81A5.55,5.55,0,0,0,311,228.44Z" transform="translate(-262.84 -105.18)"/><path class="cls-1" d="M280.34,215.78a5,5,0,0,1-.2,1.16,3.37,3.37,0,0,0-.14,1.23,2.26,2.26,0,0,0,.68,1.26,3.87,3.87,0,0,0,1.52.89,20.35,20.35,0,0,0,2.11.48,11.06,11.06,0,0,1,2.45.76c0.79,0.35,1.55.76,2.28,1.13a15.61,15.61,0,0,0,2.16,1,8.65,8.65,0,0,0,2.16.47,9,9,0,0,0,3.93-.56c1.11-.46,2.08-1,2.8-1.2a5,5,0,0,1,1.15-.27,6.81,6.81,0,0,0-1,.56c-0.62.38-1.39,1.07-2.53,1.75a8.75,8.75,0,0,1-7,.75,16.76,16.76,0,0,1-2.41-1c-0.75-.4-1.47-0.81-2.18-1.15a12.08,12.08,0,0,0-2.13-.8,13.56,13.56,0,0,1-2.25-.76A4.41,4.41,0,0,1,280,220a2.8,2.8,0,0,1-.58-1.87,3.35,3.35,0,0,1,.46-1.34c0.17-.33.32-0.57,0.4-0.76A2.86,2.86,0,0,0,280.34,215.78Z" transform="translate(-262.84 -105.18)"/><path class="cls-1" d="M358.28,224.54a1.53,1.53,0,0,1,.4-0.26,2.17,2.17,0,0,1,1.35-.14,3.84,3.84,0,0,1,1.9,1c0.62,0.55,1.18,1.27,1.86,1.86a4.76,4.76,0,0,0,.56.41,5.33,5.33,0,0,0,.6.31,7.15,7.15,0,0,0,1.42.45,31.22,31.22,0,0,0,3.39.38c2.42,0.19,5,.46,7.58.72,1.29,0.15,2.55.27,3.79,0.33a22.84,22.84,0,0,0,3.61-.08,12.48,12.48,0,0,0,3.2-.79,9.69,9.69,0,0,0,2.52-1.53c1.41-1.23,2.47-2.51,3.34-3.26a11.19,11.19,0,0,1,1-.83l0.39-.26a11.68,11.68,0,0,0-1.19,1.32c-0.35.44-.75,1-1.23,1.63a20,20,0,0,1-1.71,2.1,9.5,9.5,0,0,1-2.66,2,12,12,0,0,1-3.51,1.11,20.08,20.08,0,0,1-3.87.24c-1.3,0-2.63-.15-3.91-0.28-2.58-.3-5.15-0.59-7.56-0.92a23.67,23.67,0,0,1-3.53-.63,7.52,7.52,0,0,1-1.62-.66,6.13,6.13,0,0,1-.72-0.48,5.71,5.71,0,0,1-.59-0.54c-0.72-.76-1.16-1.53-1.66-2.1a3.62,3.62,0,0,0-1.54-1.12,2.11,2.11,0,0,0-1.24-.09A1.53,1.53,0,0,0,358.28,224.54Z" transform="translate(-262.84 -105.18)"/><path class="cls-1" d="M282.78,231.63v0.55a9.46,9.46,0,0,0,.13,1.56,12.62,12.62,0,0,0,2.26,5.42,17.32,17.32,0,0,0,7,5.71,41.34,41.34,0,0,0,11.55,3c4.43,0.62,9.18,1.13,14.26,1.61s10.43,0.86,16,1.06,11.32,0.22,17.16,0c2.92-.12,5.86-0.28,8.82-0.47s5.91-.49,8.88-0.68c5.94-.43,11.89-0.68,17.74-0.84l17.18-.36,16-.36c1.29,0,2.51-.06,3.75-0.15s2.37-.28,3.53-0.48a46.35,46.35,0,0,0,6.61-1.75,38.72,38.72,0,0,0,5.76-2.5,28.92,28.92,0,0,0,2.48-1.5c0.78-.54,1.55-1.09,2.27-1.62a35.38,35.38,0,0,0,6.8-6.26,13.33,13.33,0,0,0,2.64-5.26l0.17-.89c0-.26,0-0.48.06-0.66l0-.54h0.17v0.55c0,0.18,0,.41,0,0.68l-0.12.93a13.79,13.79,0,0,1-2.4,5.6,34.2,34.2,0,0,1-6.67,6.71c-0.72.58-1.45,1.15-2.23,1.73a24.27,24.27,0,0,1-2.55,1.65,40.07,40.07,0,0,1-5.9,2.73,47.86,47.86,0,0,1-6.78,2,35,35,0,0,1-3.72.57c-1.24.11-2.54,0.14-3.8,0.2-5.11.22-10.51,0.31-16.08,0.35l-17.18.1c-5.85,0-11.79.11-17.72,0.29s-11.88.6-17.73,0.76-11.62.32-17.2,0.35-11-.11-16.1-0.54-9.94-1-14.34-1.67a38.56,38.56,0,0,1-11.83-3.38,17.67,17.67,0,0,1-7.12-6.29,13,13,0,0,1-2-5.76,9.76,9.76,0,0,1,0-1.61l0-.54h0.17Z" transform="translate(-262.84 -105.18)"/><path class="cls-1" d="M286,229.82l0.19,0.36c0.13,0.23.27,0.6,0.5,1l0.35,0.71c0.14,0.25.29,0.53,0.44,0.82,0.33,0.58.68,1.23,1.12,1.92s0.92,1.41,1.43,2.18,1,1.61,1.69,2.41a10.94,10.94,0,0,0,2.24,2.25,12.57,12.57,0,0,0,2.85,1.61c1,0.43,2.06.74,3.07,1.06s2,0.59,3,.81l5.48,1.29,3.92,0.92,1.5,0.37v0.16s-0.56.07-1.55,0.12a29.55,29.55,0,0,1-4.09-.12c-0.84-.09-1.76-0.2-2.71-0.38a25.12,25.12,0,0,1-3-.71c-1-.31-2.07-0.66-3.11-1.09a16.34,16.34,0,0,1-3-1.64c-1-.64-1.85-1.33-2.73-2s-1.74-1.35-2.57-2a12.8,12.8,0,0,1-3.71-4.53,14.48,14.48,0,0,1-1.36-3.93,9.19,9.19,0,0,1-.15-1.14l0-.41Z" transform="translate(-262.84 -105.18)"/><path class="cls-1" d="M351.44,199.47l0.1,0.34a4.62,4.62,0,0,0,.43.88,5.31,5.31,0,0,0,2.68,2.07,9.29,9.29,0,0,0,4.8.16,10.15,10.15,0,0,0,5-2.09,6.31,6.31,0,0,0,1.6-2.2,9.4,9.4,0,0,0,.71-2.61,8.28,8.28,0,0,0-.48-4.73,4.2,4.2,0,0,0-1.28-1.4,7,7,0,0,0-1.33-.72c-0.79-.33-1.26-0.47-1.26-0.47a10.41,10.41,0,0,1,1.31.32,7.25,7.25,0,0,1,1.44.61,4.11,4.11,0,0,1,1.51,1.42,5.9,5.9,0,0,1,.77,2.34,11.34,11.34,0,0,1,0,2.71,10.14,10.14,0,0,1-.72,2.84,7.11,7.11,0,0,1-1.76,2.51,8.14,8.14,0,0,1-2.66,1.49,16,16,0,0,1-2.81.68,9.31,9.31,0,0,1-5.09-.44,5.32,5.32,0,0,1-2.64-2.42,4,4,0,0,1-.33-1Z" transform="translate(-262.84 -105.18)"/><path class="cls-1" d="M380,194.93l-0.23.28a5.19,5.19,0,0,0-.54.85,5.47,5.47,0,0,0-.46,3.43,4.73,4.73,0,0,0,.92,2.08,6.39,6.39,0,0,0,2,1.59,22.79,22.79,0,0,0,2.6,1.14c0.91,0.35,1.84.69,2.79,1a13.79,13.79,0,0,0,5.63.69,8.21,8.21,0,0,0,4.47-1.92,7.75,7.75,0,0,0,1.32-1.48,5.66,5.66,0,0,0,.65-1.4,5.07,5.07,0,0,0,.21-1l0-.36v0.36a4.28,4.28,0,0,1-.09,1,6.17,6.17,0,0,1-1.81,3.18,8.37,8.37,0,0,1-4.7,2.29,14.5,14.5,0,0,1-6-.61c-1-.3-1.92-0.66-2.84-1a23.42,23.42,0,0,1-2.66-1.23,6.3,6.3,0,0,1-2.12-1.86,5.26,5.26,0,0,1-.89-2.36,5.48,5.48,0,0,1,.77-3.58,4.39,4.39,0,0,1,.64-0.8Z" transform="translate(-262.84 -105.18)"/><path class="cls-1" d="M287.34,183.72l-1.08.5a17.3,17.3,0,0,0-2.7,1.52,7,7,0,0,0-2.61,3.26,4.25,4.25,0,0,0-.21,2.27,4.67,4.67,0,0,0,1,2.1,5.85,5.85,0,0,0,1.87,1.51,8.59,8.59,0,0,0,2.26.78,16.17,16.17,0,0,0,2.26.28,13.34,13.34,0,0,0,2.05,0,11.36,11.36,0,0,0,3-.69,9.81,9.81,0,0,0,1.08-.49l-0.26.18a7,7,0,0,1-.76.46,10.07,10.07,0,0,1-3,1,13.86,13.86,0,0,1-2.13.19,11.79,11.79,0,0,1-2.38-.18,9.33,9.33,0,0,1-2.47-.8,6.63,6.63,0,0,1-2.15-1.67A5.44,5.44,0,0,1,280,191.4a5,5,0,0,1,.3-2.64,7.16,7.16,0,0,1,3-3.4,14.25,14.25,0,0,1,2.9-1.28C286.92,183.83,287.34,183.72,287.34,183.72Z" transform="translate(-262.84 -105.18)"/><path class="cls-1" d="M445.83,181.34l0.21-.14a4.81,4.81,0,0,1,.62-0.35,6.48,6.48,0,0,1,2.5-.6,6.78,6.78,0,0,1,3.58.87,4.63,4.63,0,0,1,1.6,1.46,3,3,0,0,1,.41,2.29,4.35,4.35,0,0,1-1.13,2,6,6,0,0,1-1.75,1.22,5.89,5.89,0,0,1-1.9.52,6.81,6.81,0,0,1-1.75,0,5.86,5.86,0,0,1-2.4-.9,5.62,5.62,0,0,1-.75-0.6l0.21,0.13a5.09,5.09,0,0,0,.62.33,6.51,6.51,0,0,0,5.65-.11A5.74,5.74,0,0,0,453,186.3a3.57,3.57,0,0,0,.91-1.6,2.13,2.13,0,0,0-.28-1.68,4.16,4.16,0,0,0-1.3-1.27,6.6,6.6,0,0,0-3.2-1A7.09,7.09,0,0,0,445.83,181.34Z" transform="translate(-262.84 -105.18)"/><path class="cls-1" d="M410.45,199.51a1.71,1.71,0,0,0-.47.45,2.19,2.19,0,0,0-.4,1.55,2.67,2.67,0,0,0,1.19,1.8,3.79,3.79,0,0,0,2.43.65,3.88,3.88,0,0,0,2.34-.93,4.18,4.18,0,0,0,.77-0.92,4.06,4.06,0,0,0,.44-1,4.48,4.48,0,0,0,.16-1.68,4.74,4.74,0,0,0-.11-0.65,3,3,0,0,1,.27.62,4,4,0,0,1,.14,1.81,4.6,4.6,0,0,1-.36,1.19,3.89,3.89,0,0,1-.8,1.16,4.33,4.33,0,0,1-2.8,1.23,4.53,4.53,0,0,1-1.57-.18,4,4,0,0,1-1.35-.72,3.11,3.11,0,0,1-1.21-2.36,2.29,2.29,0,0,1,.74-1.68,1.71,1.71,0,0,1,.43-0.28Z" transform="translate(-262.84 -105.18)"/></svg>