<?xml version="1.0"?>
<svg xmlns="http://www.w3.org/2000/svg" height="512px" viewBox="-11 0 410 410.03887" width="512px" class=""><g><path d="m382.347656 329.375h-20.542968c4.011718-5.292969 5.738281-11.972656 4.796874-18.546875-.945312-6.574219-4.476562-12.5-9.8125-16.453125 5.335938-3.953125 8.867188-9.878906 9.8125-16.453125.941407-6.574219-.785156-13.253906-4.796874-18.546875h20.546874c2.761719 0 5-2.238281 5-5-.066406-60.171875-48.828124-108.933594-109-109h-169.332031c-60.171875.066406-108.9296872 48.828125-108.9999998 109 0 2.761719 2.2382808 5 4.9999998 5h20.542969c-4.011719 5.292969-5.738281 11.972656-4.792969 18.546875.941407 6.574219 4.472657 12.5 9.808594 16.453125-5.335937 3.953125-8.867187 9.878906-9.808594 16.453125-.945312 6.574219.78125 13.253906 4.792969 18.546875h-20.542969c-2.824219.15625-5.0273435 2.503906-4.9999998 5.332031.046875 41.585938 33.7460938 75.285157 75.3320308 75.332031h236.667969c41.699219-.085937 75.429688-33.964843 75.332031-75.664062 0-2.761719-2.242187-5.003906-5.003906-5zm-273.332031-174h169.335937c52.707032.0625 96.152344 41.363281 98.875 94h-103.542968c-2.761719 0-5 2.238281-5 5s2.238281 5 5 5h68.164062c8.285156 0 15 6.714844 15 15s-6.714844 15-15 15h-140.164062c-2.761719 0-5 2.238281-5 5s2.238281 5 5 5h140.164062c8.285156 0 15 6.714844 15 15s-6.714844 15-15 15h-180.046875l39.789063-70h39.09375c2.761718 0 5-2.238281 5-5s-2.238282-5-5-5h-230.539063c2.722657-52.636719 46.167969-93.9375 98.875-94zm-78.496094 119c.007813-8.28125 6.71875-14.992188 15-15h144.5625l-50.898437 89.546875-43.785156-77.019531c-1.363282-2.402344-4.414063-3.242188-6.816407-1.878906-2.402343 1.367187-3.242187 4.417968-1.878906 6.820312l7.125 12.527344h-48.308594c-8.277343-.007813-14.988281-6.71875-15-14.996094zm281.5 125.664062h-236.667969c-34.242187-.066406-62.644531-26.515624-65.148437-60.664062h84.800781c2.761719 0 5-2.238281 5-5s-2.238281-5-5-5h-49.484375c-8.285156 0-15-6.714844-15-15s6.714844-15 15-15h54l35.324219 62.136719c.886719 1.5625 2.546875 2.53125 4.347656 2.53125 1.800782 0 3.460938-.96875 4.347656-2.53125l12.585938-22.136719h221.066406c-2.492187 34.164062-30.917968 60.621094-65.171875 60.664062zm0 0" data-original="#000000" class="active-path" data-old_color="#d62231" fill="#d62231"/><path d="m339.003906 221.460938c.96875 2.585937 3.851563 3.898437 6.4375 2.929687 2.585938-.972656 3.894532-3.855469 2.925782-6.441406-4.457032-12.539063-12.539063-23.476563-23.222657-31.414063-2.230469-1.628906-5.359375-1.140625-6.988281 1.089844-1.628906 2.234375-1.140625 5.363281 1.089844 6.988281 9.101562 6.796875 15.976562 16.140625 19.757812 26.847657zm0 0" data-original="#000000" class="active-path" data-old_color="#d62231" fill="#d62231"/><path d="m300.003906 185.992188c1.394532.234374 2.769532.570312 4.117188.996093 2.640625.800781 5.433594-.6875 6.238281-3.328125.804687-2.644531-.6875-5.4375-3.328125-6.242187-1.859375-.589844-3.757812-1.039063-5.683594-1.34375-2.738281-.371094-5.257812 1.550781-5.625 4.285156-.371094 2.738281 1.546875 5.257813 4.285156 5.628906zm0 0" data-original="#000000" class="active-path" data-old_color="#d62231" fill="#d62231"/><path d="m130.539062 106.039062c.324219 0 .644532-.03125.960938-.09375 2.710938-.527343 4.476562-3.152343 3.953125-5.863281-3.113281-13.867187-1.753906-28.363281 3.882813-41.40625 3.96875-8.949219 5.601562-18.757812 4.746093-28.507812-.367187-2.695313-2.824219-4.601563-5.523437-4.289063-2.703125.3125-4.660156 2.722656-4.40625 5.433594.65625 8.210938-.796875 16.453125-4.214844 23.945312-6.289062 14.746094-7.792969 31.089844-4.304688 46.738282.457032 2.347656 2.515626 4.042968 4.90625 4.042968zm0 0" data-original="#000000" class="active-path" data-old_color="#d62231" fill="#d62231"/><path d="m128.558594 12.535156c1.21875 2.347656 4.050781 3.339844 6.46875 2.269532 2.417968-1.074219 3.582031-3.839844 2.65625-6.316407-.800782-1.824219-1.695313-3.71875-2.683594-5.683593-1.335938-2.265626-4.199219-3.105469-6.546875-1.925782-2.351563 1.179688-3.386719 3.976563-2.371094 6.398438.910157 1.824218 1.734375 3.574218 2.476563 5.257812zm0 0" data-original="#000000" class="active-path" data-old_color="#d62231" fill="#d62231"/><path d="m185.1875 101.996094c.457031 2.34375 2.507812 4.039062 4.894531 4.042968.324219 0 .644531-.03125.960938-.09375 2.710937-.527343 4.480469-3.152343 3.953125-5.863281-3.113282-13.863281-1.75-28.359375 3.886718-41.402343 5.117188-14.0625 9.949219-27.339844-4.320312-55.875-.789062-1.613282-2.382812-2.679688-4.175781-2.789063-1.792969-.1132812-3.507813.742187-4.492188 2.246094-.984375 1.5-1.089843 3.414062-.273437 5.011719 12.34375 24.683593 8.597656 34.964843 3.863281 48-6.28125 14.742187-7.78125 31.082031-4.296875 46.722656zm0 0" data-original="#000000" class="active-path" data-old_color="#d62231" fill="#d62231"/><path d="m244.734375 101.996094c.457031 2.347656 2.515625 4.039062 4.90625 4.042968.320313 0 .644531-.03125.960937-.09375 2.707032-.527343 4.476563-3.152343 3.949219-5.863281-3.113281-13.867187-1.753906-28.363281 3.886719-41.40625 5.113281-14.0625 9.945312-27.339843-4.320312-55.875-.792969-1.613281-2.386719-2.679687-4.179688-2.7890622-1.789062-.1132808-3.503906.7421872-4.492188 2.2460932-.984374 1.5-1.089843 3.414063-.273437 5.011719 12.34375 24.683594 8.601563 34.964844 3.863281 48-6.28125 14.742188-7.785156 31.085938-4.300781 46.726563zm0 0" data-original="#000000" class="active-path" data-old_color="#d62231" fill="#d62231"/></g> </svg>
