<svg id="OBJECTS" xmlns="http://www.w3.org/2000/svg" viewBox="0 0 66.24 55.1"><defs><style>.cls-1{fill:#ffda3d;}.cls-2{fill:#f1cd34;}.cls-3{fill:#e0bb0c;}.cls-4{fill:#dd1829;}.cls-5{fill:#f98a1c;}.cls-6{fill:#ffc65e;}.cls-7{fill:#54a900;}.cls-8{fill:#773f2a;}.cls-9{fill:#874c36;}.cls-10{fill:#ffb600;}.cls-11{fill:#c83125;}.cls-12{fill:#e9281c;}.cls-13{fill:#fff;}</style></defs><title>logo</title><polygon class="cls-1" points="46.26 1.42 42.92 1.27 39.14 39.73 41.85 39.85 46.26 1.42"/><polygon class="cls-2" points="42.92 1.27 41.79 0 38.52 38.03 39.14 39.73 42.92 1.27"/><polygon class="cls-3" points="41.79 0 44.25 0.11 46.26 1.42 42.92 1.27 41.79 0"/><polygon class="cls-1" points="27.4 7.18 30.68 6.56 39.93 44.08 37.27 44.59 27.4 7.18"/><polygon class="cls-2" points="30.68 6.56 31.61 5.14 40.3 42.31 39.93 44.08 30.68 6.56"/><polygon class="cls-3" points="31.61 5.14 29.2 5.6 27.4 7.18 30.68 6.56 31.61 5.14"/><polygon class="cls-1" points="38.55 41.32 35.63 3.72 38.16 4.23 40.52 41.96 38.55 41.32"/><polygon class="cls-2" points="38.16 4.23 39.87 3.61 42.13 41.11 40.52 41.96 38.16 4.23"/><polygon class="cls-3" points="35.63 3.72 38.16 4.23 39.87 3.61 37.84 3.2 35.63 3.72"/><polygon class="cls-1" points="58.14 8 54.8 7.86 51.03 46.32 53.73 46.44 58.14 8"/><polygon class="cls-2" points="54.8 7.86 53.68 6.58 50.41 44.62 51.03 46.32 54.8 7.86"/><polygon class="cls-3" points="53.68 6.58 56.13 6.69 58.14 8 54.8 7.86 53.68 6.58"/><polygon class="cls-1" points="55.34 41.69 63.46 4.85 60.89 5.01 53.3 42.04 55.34 41.69"/><polygon class="cls-2" points="60.89 5.01 59.28 4.16 51.82 40.98 53.3 42.04 60.89 5.01"/><polygon class="cls-3" points="63.46 4.85 60.89 5.01 59.28 4.16 61.34 4.04 63.46 4.85"/><polygon class="cls-1" points="54.31 49.6 66.24 13.82 63.67 13.7 52.25 49.74 54.31 49.6"/><polygon class="cls-2" points="63.67 13.7 62.16 12.69 50.89 48.52 52.25 49.74 63.67 13.7"/><polygon class="cls-3" points="66.24 13.82 63.67 13.7 62.16 12.69 64.22 12.78 66.24 13.82"/><polygon class="cls-1" points="35.78 50.23 27.06 13.54 29.63 13.65 37.83 50.56 35.78 50.23"/><polygon class="cls-2" points="29.63 13.65 31.22 12.78 39.29 49.47 37.83 50.56 29.63 13.65"/><polygon class="cls-3" points="27.06 13.54 29.63 13.65 31.22 12.78 29.16 12.69 27.06 13.54"/><polygon class="cls-1" points="35.66 45.96 32.74 8.36 35.26 8.87 37.62 46.6 35.66 45.96"/><polygon class="cls-2" points="35.26 8.87 36.97 8.25 39.23 45.75 37.62 46.6 35.26 8.87"/><polygon class="cls-3" points="32.74 8.36 35.26 8.87 36.97 8.25 34.95 7.84 32.74 8.36"/><polygon class="cls-1" points="48.73 49.2 56.85 12.38 54.29 12.53 46.69 49.56 48.73 49.2"/><polygon class="cls-2" points="54.29 12.53 52.68 11.68 45.22 48.5 46.69 49.56 54.29 12.53"/><polygon class="cls-3" points="56.85 12.38 54.29 12.53 52.68 11.68 54.74 11.56 56.85 12.38"/><polygon class="cls-1" points="49.38 42.61 52.7 5.04 50.18 5.53 47.41 43.23 49.38 42.61"/><polygon class="cls-2" points="50.18 5.53 48.47 4.89 45.81 42.36 47.41 43.23 50.18 5.53"/><polygon class="cls-3" points="52.7 5.04 50.18 5.53 48.47 4.89 50.5 4.5 52.7 5.04"/><polygon class="cls-1" points="48.97 9.24 45.63 9.09 41.85 47.55 44.56 47.67 48.97 9.24"/><polygon class="cls-2" points="45.63 9.09 44.51 7.82 41.24 45.85 41.85 47.55 45.63 9.09"/><polygon class="cls-3" points="44.51 7.82 46.96 7.93 48.97 9.24 45.63 9.09 44.51 7.82"/><polygon class="cls-1" points="37.62 13.08 40.96 13.23 41.67 44.23 38.96 44.11 37.62 13.08"/><polygon class="cls-2" points="40.96 13.23 42.18 12.3 42.42 42.92 41.67 44.23 40.96 13.23"/><polygon class="cls-3" points="42.18 12.3 39.72 12.19 37.62 13.08 40.96 13.23 42.18 12.3"/><path class="cls-4" d="M68.6,56.44c-1.66,1.31-22.1.38-24.16-1.07s-3-25.46-3-25.46l32.29,1.43S70.26,55.14,68.6,56.44Z" transform="translate(-11.68 -4.46)"/><path class="cls-5" d="M32,53.83c-10.61,0-19.22-1.92-19.22-4.29v3.32c0,2.37,4.64,6.7,19.22,6.7s19.22-4.33,19.22-6.7V49.54c0,2.37-8.6,4.29-19.22,4.29" transform="translate(-11.68 -4.46)"/><path class="cls-6" d="M32,45.25c-10.61,0-19.22,1.92-19.22,4.29s8.6,4.29,19.22,4.29,19.22-1.92,19.22-4.29S42.58,45.25,32,45.25" transform="translate(-11.68 -4.46)"/><path class="cls-7" d="M18.06,43.17a1.94,1.94,0,0,0-1.45.41c-0.52.69,0.38,1.2-.59,1.67s-1.81.31-2.58,0.94a2.57,2.57,0,0,0-1.07,2,1.21,1.21,0,0,0,.23.89c0.32,0.41,1.31.55,1.51,0.9,0.36,0.6-1.59,1-2,1.64-0.54.76-.42,1.63,0.59,1.82,1.7,0.32,2.7-1.24,4.36-1,0.06,0.65-.66,1.36,0,1.82,1.36,1,2.88-2.06,3.5-2.7s3.28-1.35,3.86-.46c0.29,0.44,0,1.21.16,1.71A2.25,2.25,0,0,0,26,54.1c1.43,0.28,3.19-4.07,4.79-1.87,0.55,0.76.71,1.85,1.38,2.52a4.15,4.15,0,0,0,2.74.76,14.16,14.16,0,0,0,2.18-.41c1-.18,2,0,2.95-0.26-0.21-.49-0.62-0.89-0.84-1.38a8.9,8.9,0,0,1,4.37.34c1.26,0.43,2.76,1.07,4.09.42,0.7-.34,1.61-1.41,1.23-2.18a2,2,0,0,0-1.26-.61c-0.28-.09-1-0.14-1.08-0.46-0.07-.53,1.14-0.7,1.51-0.78,1.4-.3,2.08-0.56,2-1.92,2.06-.2,3.06-2.57.51-2.9a5.5,5.5,0,0,0-2.71.69,6.69,6.69,0,0,1-2.92.43,10,10,0,0,0,.62-1.74c0-1.16-1.44-1.68-2.45-2a13.89,13.89,0,0,0-6.39.24c-1,.24-2.08.46-3.1,0.74a8.18,8.18,0,0,1-2.81.56c-1.63-.19-2.28-2.37-4.22-1.85-1.58.43-2.69,1.57-4.21,2.06-1.2.39-1.62-.62-2.58-1.15a3,3,0,0,0-2-.22" transform="translate(-11.68 -4.46)"/><path class="cls-8" d="M31.77,46.89C21.94,46.89,14,45,14,42.6v3.32c0,2.37,8,4.29,17.8,4.29s17.8-1.92,17.8-4.29V42.6c0,2.37-8,4.29-17.8,4.29" transform="translate(-11.68 -4.46)"/><path class="cls-9" d="M31.77,38.31c-9.83,0-17.8,1.92-17.8,4.29s8,4.29,17.8,4.29S49.57,45,49.57,42.6s-8-4.29-17.8-4.29" transform="translate(-11.68 -4.46)"/><path class="cls-10" d="M15.54,41.14c-1.47.25-3.16,1.35-3.36,2.61,1.17,1,2.57.2,3.94,0.62,1.68,0.52,1.75,2.15,3.88,2,1.44-.1,3-1,4.46-0.81a12.84,12.84,0,0,1,4,1.57c0.83,0.48,2.1,1.9,3.13,1.54s1.12-1.89,2.36-2.34,2.87,0.06,4.22-.09a5.73,5.73,0,0,0,2-.91,3.87,3.87,0,0,1,2.51-.2c1.29,0.19,3.36,1.42,4.64,1.11s0.6-1.38,1.1-2.3,1.36-.84,1.32-2-0.9-1.81-1.9-2.57c-2-1.5-2.75-2-5.52-2a56,56,0,0,0-9.94.56c-3.14.58-6.25,1.18-9.3,2-1.3.36-5,2.62-6.12,1.06Z" transform="translate(-11.68 -4.46)"/><path class="cls-11" d="M21.68,44.41c-4.32-.62-7.72-2.33-7.59-3.82L14,41.93c-0.13,1.48,3.27,3.19,7.59,3.82s7.93-.07,8.05-1.56l0.11-1.34C29.61,44.33,26,45,21.68,44.41" transform="translate(-11.68 -4.46)"/><path class="cls-12" d="M22.14,39c-4.32-.62-7.93.07-8.05,1.56s3.27,3.19,7.59,3.82,7.93-.07,8.05-1.56S26.46,39.66,22.14,39" transform="translate(-11.68 -4.46)"/><path class="cls-11" d="M41.37,44.62c-4.33.52-7.92-.27-8-1.75l0.1,1.35c0.1,1.49,3.7,2.27,8,1.75s7.75-2.14,7.65-3.63L49,41c0.1,1.49-3.32,3.11-7.65,3.63" transform="translate(-11.68 -4.46)"/><path class="cls-12" d="M41,39.23c-4.33.52-7.75,2.15-7.65,3.63s3.7,2.27,8,1.75S49.12,42.47,49,41s-3.7-2.27-8-1.75" transform="translate(-11.68 -4.46)"/><path class="cls-11" d="M31.9,44.43c-4.36-.08-7.79-1.34-7.65-2.83L24.13,43c-0.14,1.49,3.29,2.75,7.65,2.83s8-1.06,8.15-2.55l0.12-1.34c-0.14,1.48-3.79,2.63-8.15,2.55" transform="translate(-11.68 -4.46)"/><path class="cls-12" d="M32.4,39.06c-4.37-.08-8,1.06-8.15,2.55s3.29,2.75,7.65,2.83,8-1.07,8.15-2.55-3.29-2.75-7.65-2.83" transform="translate(-11.68 -4.46)"/><path class="cls-5" d="M51.86,39.58s0,0,0-.07,0-.08,0-0.12c-0.27-9.87-9.16-17.8-20.09-17.8S12,29.53,11.68,39.4c0,0,0,.08,0,0.12s0,0,0,.07,0,0.18,0,.28h0a1.92,1.92,0,0,0,1.92,1.44A93.62,93.62,0,0,0,31.77,43,93.62,93.62,0,0,0,49.9,41.29a1.92,1.92,0,0,0,1.92-1.44h0C51.87,39.76,51.86,39.67,51.86,39.58Z" transform="translate(-11.68 -4.46)"/><path class="cls-13" d="M25.64,25.08a0.44,0.44,0,0,1-.4.39,0.49,0.49,0,0,1-.58-0.06,0.44,0.44,0,0,1,.4-0.38,0.5,0.5,0,0,1,.58.06" transform="translate(-11.68 -4.46)"/><path class="cls-13" d="M34,27a0.44,0.44,0,0,1-.4.39A0.5,0.5,0,0,1,33,27.28a0.44,0.44,0,0,1,.4-0.39A0.5,0.5,0,0,1,34,27" transform="translate(-11.68 -4.46)"/><path class="cls-13" d="M43.3,27a0.44,0.44,0,0,1-.4.39,0.5,0.5,0,0,1-.58-0.06,0.44,0.44,0,0,1,.4-0.39,0.49,0.49,0,0,1,.58.06" transform="translate(-11.68 -4.46)"/><path class="cls-13" d="M28.72,26.8a0.49,0.49,0,0,1-.54-0.2A0.4,0.4,0,0,1,28,26.09a0.49,0.49,0,0,1,.54.2,0.4,0.4,0,0,1,.15.51" transform="translate(-11.68 -4.46)"/><path class="cls-13" d="M22.23,26.42a0.49,0.49,0,0,1-.54-0.2,0.4,0.4,0,0,1-.15-0.51,0.49,0.49,0,0,1,.54.2,0.4,0.4,0,0,1,.15.51" transform="translate(-11.68 -4.46)"/><path class="cls-13" d="M30.14,24.4a0.5,0.5,0,0,1-.57-0.09,0.42,0.42,0,0,1-.26-0.47,0.5,0.5,0,0,1,.57.09c0.23,0.16.35,0.37,0.26,0.47" transform="translate(-11.68 -4.46)"/><path class="cls-13" d="M27.11,28.63a0.49,0.49,0,0,1-.57-0.09,0.41,0.41,0,0,1-.27-0.47,0.5,0.5,0,0,1,.57.09,0.41,0.41,0,0,1,.26.47" transform="translate(-11.68 -4.46)"/><path class="cls-13" d="M32.37,25.67a0.47,0.47,0,0,1-.47-0.31,0.4,0.4,0,0,1,0-.53,0.47,0.47,0,0,1,.47.31,0.4,0.4,0,0,1,0,.53" transform="translate(-11.68 -4.46)"/><path class="cls-13" d="M33.63,24.08c-0.09-.1,0-0.32.23-0.48a0.49,0.49,0,0,1,.57-0.12c0.09,0.1,0,.32-0.23.49a0.5,0.5,0,0,1-.57.12" transform="translate(-11.68 -4.46)"/><path class="cls-13" d="M38.28,24.84a0.5,0.5,0,0,1-.58-0.05,0.42,0.42,0,0,1-.3-0.46,0.5,0.5,0,0,1,.58.05,0.42,0.42,0,0,1,.3.46" transform="translate(-11.68 -4.46)"/><path class="cls-13" d="M35.58,25.23a0.39,0.39,0,0,1,0,.53,0.47,0.47,0,0,1-.48.29,0.4,0.4,0,0,1,0-.53,0.47,0.47,0,0,1,.48-0.29" transform="translate(-11.68 -4.46)"/><path class="cls-13" d="M40.47,24.59a0.48,0.48,0,0,1,.51.25,0.4,0.4,0,0,1,.09.52,0.48,0.48,0,0,1-.52-0.25,0.4,0.4,0,0,1-.09-0.52" transform="translate(-11.68 -4.46)"/><path class="cls-13" d="M38,26.73a0.48,0.48,0,0,1,.51.25,0.4,0.4,0,0,1,.09.52,0.48,0.48,0,0,1-.51-0.25A0.4,0.4,0,0,1,38,26.73" transform="translate(-11.68 -4.46)"/></svg>